<svg width="19" height="24" viewBox="0 0 19 24" fill="none" xmlns="http://www.w3.org/2000/svg">
<path d="M5.822 10.6992C3.9992 16.5024 2.0028 21.8376 1.2216 22.3992C0.0932041 23.4288 0.266804 23.616 2.8708 23.5224C4.52 23.4288 5.1276 23.2416 4.3464 22.9608C3.1312 22.68 3.0444 22.1184 3.8256 19.7784C4.6068 17.4384 5.1276 17.064 8.0788 17.064C11.03 17.064 11.6376 17.4384 12.4188 19.5912C13.0264 21.4632 12.9396 22.212 12.1584 22.8672C11.464 23.2416 12.766 23.616 15.2832 23.616C18.9288 23.616 19.3628 23.4288 18.2344 22.3992C17.54 21.8376 15.4568 16.5024 13.5472 10.6992C11.7244 4.9896 9.9884 0.216003 9.6412 0.216003C9.294 0.216003 7.558 4.9896 5.822 10.6992ZM10.5092 14.4432C10.596 15.7536 9.9016 16.128 7.9052 16.128C5.4748 16.128 5.2144 15.9408 5.7352 13.788C5.9956 12.5712 6.69 10.3248 7.2108 8.9208L8.1656 6.3L9.294 9.576C9.9884 11.3544 10.5092 13.6008 10.5092 14.4432Z" fill="black"/>
</svg>
