<svg width="17" height="24" viewBox="0 0 17 24" fill="none" xmlns="http://www.w3.org/2000/svg">
<path d="M0.334399 0.871202C1.0288 1.152 1.376 4.3344 1.376 11.916C1.376 19.4976 1.0288 22.68 0.334399 22.9608C-0.273201 23.2416 1.81 23.5224 5.02159 23.5224C8.23319 23.616 11.8788 23.148 13.094 22.4928C17.1736 20.5272 17.0868 12.9456 13.0072 11.8224L10.7504 11.1672L13.094 9.2016C15.9584 6.6744 15.7848 3.1176 12.66 1.4328C11.4448 0.777601 7.97279 0.309601 4.84799 0.309601C1.7232 0.309601 -0.273201 0.590403 0.334399 0.871202ZM9.70879 1.9008C12.66 4.0536 11.0108 10.512 7.45199 10.512C5.97639 10.512 5.71599 9.8568 5.71599 5.832C5.71599 1.9944 5.97639 1.152 7.27839 1.152C8.05959 1.152 9.18799 1.5264 9.70879 1.9008ZM10.924 13.32C11.8788 14.3496 12.66 16.0344 12.66 17.064C12.66 18.0936 11.8788 19.7784 10.924 20.808C9.96919 21.8376 8.40679 22.68 7.45199 22.68C5.88959 22.68 5.71599 22.0248 5.71599 17.064C5.71599 12.1032 5.88959 11.448 7.45199 11.448C8.40679 11.448 9.96919 12.2904 10.924 13.32Z" fill="black"/>
</svg>
