<svg width="16" height="24" viewBox="0 0 16 24" fill="none" xmlns="http://www.w3.org/2000/svg">
<path d="M0.0984206 0.871204C0.79282 1.152 1.14002 4.33441 1.14002 11.916C1.14002 19.4976 0.79282 22.68 0.0984206 23.0544C-0.509179 23.2416 2.52882 23.4288 6.78202 23.3352L14.594 23.148L14.8544 19.872L15.1148 16.596L13.3788 19.5912C11.9032 22.1184 11.0352 22.68 8.51802 22.68H5.48002V17.532C5.48002 12.9456 5.65362 12.384 7.21602 12.384C8.25762 12.384 9.29922 13.32 9.82002 14.4432C10.4276 16.128 10.6012 15.4728 10.6012 11.448C10.688 6.67441 10.6012 6.48721 9.55962 8.64001C8.95202 9.95041 7.82362 11.0736 6.95562 11.2608C5.74042 11.5416 5.48002 10.7928 5.48002 6.39361C5.48002 1.152 5.48002 1.152 8.08402 1.152C10.0804 1.152 11.122 1.80721 12.424 4.14721L14.16 7.23601V3.6792V0.216003L6.60842 0.309605C2.35522 0.309605 -0.509179 0.590405 0.0984206 0.871204Z" fill="black"/>
</svg>
