<svg width="20" height="24" viewBox="0 0 20 24" fill="none" xmlns="http://www.w3.org/2000/svg">
<path d="M0.6084 0.871199C1.9104 1.2456 2.084 2.556 2.084 11.916C2.084 21.276 1.9104 22.5864 0.6084 22.9608C-0.2596 23.2416 1.216 23.4288 3.82 23.4288C6.424 23.4288 7.8996 23.2416 7.1184 22.9608C5.9032 22.5864 5.556 21.5568 5.556 17.4384V12.384H9.896H14.236V17.4384C14.236 21.5568 13.8888 22.5864 12.7604 22.9608C11.8924 23.2416 13.368 23.4288 15.972 23.4288C18.576 23.4288 20.0516 23.2416 19.2704 22.9608C17.8816 22.5864 17.708 21.276 17.708 11.916C17.708 2.556 17.8816 1.2456 19.2704 0.871199C20.0516 0.590397 18.576 0.403198 15.972 0.403198C13.368 0.403198 11.8924 0.590397 12.7604 0.871199C14.0624 1.2456 14.236 2.088 14.0624 6.1128L13.802 10.98H9.896H5.99L5.7296 6.1128C5.556 2.088 5.7296 1.2456 7.0316 0.871199C7.8996 0.590397 6.424 0.403198 3.82 0.403198C1.216 0.403198 -0.2596 0.590397 0.6084 0.871199Z" fill="black"/>
</svg>
