<svg width="16" height="24" viewBox="0 0 16 24" fill="none" xmlns="http://www.w3.org/2000/svg">
<path d="M0.272394 0.871193C1.5744 1.24559 1.748 2.55599 1.748 11.916C1.748 21.276 1.5744 22.5864 0.272394 22.9608C-0.595607 23.2416 0.879995 23.4288 3.484 23.4288C6.088 23.4288 7.5636 23.2416 6.7824 22.9608C5.5672 22.68 5.22 21.5568 5.22 18.3744C5.22 14.6304 5.3936 14.256 7.39 14.256C12.8584 14.256 16.8512 9.0144 14.9416 4.33439C13.6396 1.33919 10.6016 0.215992 4.0916 0.309591C1.1404 0.403193 -0.595607 0.590393 0.272394 0.871193ZM9.90721 2.64959C12.9452 5.92559 10.862 13.32 6.8692 13.32C5.3936 13.32 5.22 12.6648 5.22 7.23599C5.22 1.80719 5.3936 1.15199 6.8692 1.15199C7.824 1.15199 9.21281 1.80719 9.90721 2.64959Z" fill="black"/>
</svg>
