<svg width="20" height="33" viewBox="0 0 20 33" fill="none" xmlns="http://www.w3.org/2000/svg">
<path d="M5.47241 1.68399C2.00041 3.27519 0.00400543 7.39359 0.00400543 13.1032C0.00400543 18.6256 2.52121 23.3992 5.73281 24.2416C7.81601 24.8032 7.90281 24.9904 6.68761 26.02C5.47241 26.956 5.99321 27.424 9.89921 29.5768C15.0204 32.3848 16.496 32.6656 18.0584 30.9808C19.534 29.3896 19.3604 25.552 17.8848 25.552C15.9752 25.552 15.4544 27.2368 17.0168 28.1728C17.798 28.6408 18.1452 29.296 17.7112 29.5768C17.2772 29.8576 15.194 29.1088 13.024 27.892L9.11801 25.7392L12.3296 24.3352C14.2392 23.4928 16.062 21.7144 16.93 19.8424C18.5792 16.4728 18.8396 8.79759 17.364 5.89599C15.2808 1.77759 9.72561 -0.281612 5.47241 1.68399ZM13.7184 6.45759C15.8016 13.0096 13.6316 23.0248 9.81241 24.3352C8.16321 24.9904 5.12521 21.34 4.34401 17.596C1.65321 5.52159 10.2464 -4.58721 13.7184 6.45759Z" fill="black"/>
</svg>
