<svg width="19" height="24" viewBox="0 0 19 24" fill="none" xmlns="http://www.w3.org/2000/svg">
<path d="M0.763985 3.96C0.763985 6.0192 0.937585 7.704 1.19799 7.704C1.45839 7.704 2.15279 6.2064 2.84719 4.428C3.71519 2.1816 4.7568 1.152 5.8852 1.152C7.6212 1.152 7.708 1.7136 7.708 11.8224C7.708 21.276 7.5344 22.5864 6.2324 22.9608C5.3644 23.2416 6.84 23.4288 9.44401 23.4288C12.048 23.4288 13.5236 23.2416 12.7424 22.9608C11.3536 22.5864 11.18 21.276 11.18 11.8224C11.18 1.7136 11.2668 1.152 13.0028 1.152C14.1312 1.152 15.1728 2.1816 16.0408 4.428C16.7352 6.2064 17.4296 7.704 17.69 7.704C17.9504 7.704 18.124 6.0192 18.124 3.96V0.216003H9.44401H0.763985V3.96Z" fill="black"/>
</svg>
