<svg width="20" height="25" viewBox="0 0 20 25" fill="none" xmlns="http://www.w3.org/2000/svg">
<path d="M0.564424 0.871201C1.86643 1.2456 2.04003 2.556 2.04003 10.8864C2.04003 22.3056 2.90803 23.8032 9.41804 23.9904C15.6676 24.1776 16.9696 22.0248 17.4904 10.7928C17.7508 5.6448 18.3584 1.3392 18.8793 0.964802C19.4001 0.590401 18.4452 0.309601 16.796 0.309601C15.1468 0.309601 14.2788 0.590401 14.8864 0.871201C16.1884 1.4328 16.362 18.1872 15.06 20.9016C14.3656 22.212 13.2372 22.68 10.72 22.68C6.20643 22.68 5.51203 21.0888 5.51203 10.1376C5.51203 2.4624 5.68563 1.2456 7.07443 0.871201C7.85564 0.590401 6.38003 0.4032 3.77603 0.4032C1.17203 0.4032 -0.303577 0.590401 0.564424 0.871201Z" fill="black"/>
</svg>
