<svg width="19" height="24" viewBox="0 0 19 24" fill="none" xmlns="http://www.w3.org/2000/svg">
<path d="M0.905599 0.871183C1.6868 1.05838 3.77 3.95999 5.4192 7.23599C7.84959 11.8224 8.54399 14.256 8.54399 17.8128C8.54399 20.7144 8.10999 22.68 7.50239 22.9608C6.89479 23.2416 8.37039 23.4288 10.714 23.4288C13.1444 23.4288 14.5332 23.2416 14.0124 22.9608C10.8876 21.6504 14.0124 4.52159 17.8316 1.33918C19.0468 0.403183 18.8732 0.215982 16.2692 0.309584C14.62 0.403183 14.0124 0.590384 14.7936 0.871183C16.1824 1.24558 16.0956 1.71358 14.0992 6.01919L11.8424 10.7928L9.32519 6.20639C7.15519 2.08798 7.06839 1.52638 8.37039 0.964783C9.15159 0.590384 7.50239 0.403183 4.638 0.403183C1.7736 0.403183 0.1244 0.590384 0.905599 0.871183Z" fill="black"/>
</svg>
