<svg width="179" height="265" viewBox="0 0 179 265" fill="none" xmlns="http://www.w3.org/2000/svg">
<path d="M114.13 8.51524C110.572 17.3136 108.228 25.2696 108.141 28.8264C108.141 30.9792 108.054 31.0728 107.36 29.388C106.752 27.7032 106.666 27.7032 106.058 30.0432L105.45 32.5704L102.065 30.6984C100.156 29.6688 98.246 29.1072 97.7252 29.388C97.2912 29.7624 95.5552 32.9448 93.8192 36.5952C91.5624 41.3688 90.434 42.96 89.4792 42.5856C88.698 42.3048 87.83 42.024 87.396 42.024C87.0488 42.024 86.528 40.7136 86.1808 39.1224C85.5732 35.6592 78.8028 27.984 76.3724 27.984C75.5044 27.984 73.3344 28.7328 71.5984 29.7624L68.3868 31.4472L66.6508 29.2944C64.5676 26.6736 62.658 26.3928 61.5296 28.5456C61.0088 29.5752 59.4464 30.1368 56.9292 30.2304C53.8044 30.324 52.5892 29.856 50.3324 27.6096C48.0756 25.4568 47.468 25.176 47.468 26.3928C47.468 28.3584 47.1208 28.3584 44.2564 26.3928L41.9996 24.8016L42.5204 28.452C42.8676 30.5112 43.3884 33.132 43.6488 34.3488C44.0828 36.0336 43.7356 36.5952 41.3052 37.7184C38.2672 39.1224 35.0556 43.0536 33.58 47.2656C32.8856 49.2312 32.9724 50.1672 34.014 51.384C35.316 52.8816 35.1424 53.1624 32.1044 54.8472C25.9416 58.3104 25.2472 64.3944 30.6288 68.9808C32.278 70.3848 33.58 72.1632 33.58 73.0056C33.58 75.6264 35.75 77.4984 39.7428 78.06C43.2148 78.6216 43.996 78.4344 46.5132 76.0944C48.6832 74.1288 49.5512 73.848 50.072 74.784C51.1136 76.5624 55.8008 76.0944 59.2728 73.9416C60.922 72.8184 62.4844 71.976 62.658 71.976C62.8316 71.976 63.526 73.848 64.2204 76.188L65.6092 80.4L63.2656 79.0896C61.9636 78.4344 59.3596 77.4984 57.5368 77.2176L54.1516 76.4688L55.6272 78.996C56.4952 80.4 57.016 81.6168 56.8424 81.7104C56.6688 81.804 53.4572 82.6464 49.638 83.4888C45.8188 84.3312 37.1388 87.2328 30.4552 89.9472L18.1296 94.8144L19.3448 98.4648C20.8204 103.051 20.8204 102.864 19.258 102.864C17.088 102.864 14.3972 106.514 14.5708 109.229C14.918 114.564 14.7444 114.845 10.6648 114.377C7.6268 114.002 6.06441 114.377 3.72081 115.968C-1.40039 119.338 -0.271994 123.456 7.01921 127.668C11.9668 130.476 15.6992 130.663 19.6052 128.042C22.5564 126.077 22.73 126.077 28.2852 127.668C31.41 128.604 35.5764 130.008 37.3992 130.757L40.7844 132.161L34.882 133.939C29.1532 135.624 28.9796 135.624 24.5528 133.939C18.6504 131.506 12.8348 132.254 11.2724 135.624C10.0572 138.058 10.4912 144.984 11.9668 147.979C13.0952 150.226 17.088 150.132 21.7752 147.792C25.6812 145.92 30.108 141.146 30.108 138.9C30.108 137.122 32.1912 136.092 38.0936 134.782C42.26 133.846 43.3884 133.846 45.6452 135.156C48.6832 136.841 48.6832 136.747 47.468 141.334C46.6868 144.329 46.166 144.797 43.3016 145.265C40.09 145.92 29.5872 152.285 30.4552 153.221C30.7156 153.408 31.4968 153.127 32.1912 152.566C33.2328 151.63 34.1876 151.63 36.7916 152.472C41.6524 154.157 41.9996 154.999 38.0936 155.748C35.6632 156.122 33.8404 155.935 32.0176 154.906C29.674 153.595 29.0664 153.595 25.8548 155.093C23.9452 155.935 22.296 157.058 22.296 157.433C22.296 157.807 23.7716 158.837 25.5076 159.586C27.3304 160.334 29.4136 161.364 30.108 161.832C30.8024 162.394 32.7988 163.423 34.448 164.359C36.0972 165.202 38.7012 166.512 40.1768 167.261C42.5204 168.478 44.2564 168.571 51.2872 167.729C58.6652 166.886 60.054 166.418 63.0052 163.891C65.8696 161.458 66.564 161.177 67.432 162.3C68.734 163.985 74.6364 166.231 79.7576 166.98L83.8372 167.542L82.7956 170.724C82.1012 172.783 80.018 175.217 76.3724 178.118C73.074 180.739 70.7304 183.36 70.3832 184.764C69.7756 187.572 71.9456 191.784 74.0288 191.784C75.8516 191.784 76.112 191.222 65.3488 218.741C60.3144 231.751 56.148 243.17 56.148 244.013C56.148 244.949 56.6688 246.446 57.2764 247.382C58.318 248.88 58.5784 248.88 62.224 247.102C64.394 246.072 68.9944 244.949 72.4664 244.574L78.716 243.919V250.939C78.716 257.772 78.8028 258.053 81.1464 259.082C88.698 262.265 96.2496 262.452 103.28 259.457C106.058 258.24 106.752 258.146 107.36 259.176C107.881 260.112 108.228 259.925 108.662 258.146C109.443 255.245 114.13 251.033 114.738 252.811C114.912 253.466 115.693 256.462 116.474 259.457C117.255 262.358 118.297 264.605 118.731 264.324C119.165 264.043 121.074 260.861 122.984 257.304C124.894 253.747 127.758 249.535 129.234 247.85C132.532 244.294 139.216 240.83 144.424 239.894C147.548 239.426 148.33 239.614 150.239 241.673C151.454 243.077 152.496 245.042 152.583 246.259C152.583 248.412 152.583 248.412 153.451 246.072C155.013 241.954 152.93 234.653 147.809 227.165C145.292 223.421 140.17 215.652 136.351 210.036C125.501 193.937 116.561 179.71 116.995 179.242C117.255 178.961 119.338 179.335 121.682 180.084C123.939 180.833 127.15 181.488 128.713 181.488C131.317 181.488 131.664 181.114 132.966 176.808C133.747 174.281 134.181 171.754 133.834 171.286C133.053 169.882 127.411 168.384 122.81 168.384C118.904 168.384 116.821 167.261 118.557 166.044C119.078 165.763 120.293 164.172 121.335 162.487L123.244 159.492L120.727 162.113C119.252 163.517 117.776 164.359 117.342 163.985C116.995 163.517 116.908 163.704 117.255 164.359C117.516 164.921 117.429 165.67 116.908 166.044C116.387 166.418 116.214 167.074 116.561 167.542C116.821 168.01 116.734 168.29 116.3 168.197C115.953 168.103 113.523 169.226 110.919 170.63C105.277 173.813 100.85 173.626 93.2116 170.256C87.0488 167.448 88.0904 166.512 97.378 166.512C106.145 166.418 110.051 165.482 117.776 161.458C121.161 159.679 123.678 158.65 123.418 159.118C123.071 159.586 123.331 159.96 123.939 159.96C124.546 159.96 123.678 161.458 122.029 163.33C120.467 165.202 119.686 166.606 120.38 166.325C121.074 166.138 122.897 164.172 124.286 162.019C125.762 159.96 127.324 158.182 127.758 158.182C128.279 158.088 130.449 160.054 132.532 162.394C137.046 167.354 143.729 171.192 148.156 171.192C151.454 171.192 155.1 169.039 155.1 167.074C155.1 164.921 150.413 161.083 140.518 154.999C130.97 149.102 130.796 149.009 132.532 147.324C134.181 145.733 134.355 145.733 137.393 148.354C142.254 152.566 145.031 154.344 146.68 154.344C148.85 154.344 148.503 152.472 145.812 149.477L143.382 146.762L146.246 144.422C151.541 139.93 153.104 133.846 149.545 132.067C145.899 130.289 145.726 125.702 149.198 119.993C151.715 115.781 153.972 113.441 154.666 114.283C154.84 114.47 153.19 117.466 151.02 121.022C148.937 124.486 147.375 127.574 147.635 127.855C147.809 128.042 150.066 124.673 152.583 120.274C155.794 114.564 157.791 112.037 159.266 111.569C160.395 111.288 164.474 111.756 168.294 112.692C173.328 114.002 175.672 114.19 176.626 113.441C179.144 111.756 178.796 109.322 175.672 105.766C174.022 103.894 172.2 100.898 171.679 99.0264C171.158 97.1544 169.769 95.0952 168.641 94.44L166.558 93.3168L169.075 87.3264C172.2 79.6512 174.196 72.5376 173.502 71.3208C173.154 70.7592 163.172 65.0496 151.194 58.5912C139.302 52.1328 128.8 46.236 128.018 45.5808C126.716 44.4576 126.803 43.8024 129.06 36.408C130.362 32.0088 131.751 26.7672 132.011 24.708L132.619 20.964L129.407 26.58C124.46 35.3784 120.293 41.1816 119.338 40.5264C118.904 40.152 119.078 39.3096 119.859 38.3736C121.856 36.0336 126.022 25.7376 128.192 17.688C129.234 13.8504 130.883 9.07684 131.838 7.11124C134.615 1.12086 132.966 2.15043 127.237 9.91924C121.335 17.9688 117.429 24.24 118.036 24.8016C118.21 24.9888 119.772 22.7424 121.508 19.8408C123.244 16.8456 125.501 13.3824 126.63 12.072C127.758 10.7616 128.279 10.2 127.845 10.8552C127.498 11.5104 127.324 12.7272 127.671 13.476C127.932 14.3184 127.845 14.7864 127.498 14.5056C127.15 14.3184 124.199 19.8408 121.074 26.8608C117.863 33.8808 115.953 38.6544 116.908 37.344C117.863 36.0336 120.38 30.6984 122.637 25.3632C124.894 20.1216 126.89 16.0032 127.064 16.0968C127.237 16.284 126.543 19.3728 125.501 22.9296C122.55 33.5064 117.255 41.8368 114.998 39.4032C114.217 38.5608 114.391 36.9696 115.432 32.9448C116.387 29.4816 116.995 22.7424 117.168 14.1312C117.429 6.83045 117.429 0.840034 117.342 0.840034C117.255 0.840034 115.78 4.30323 114.13 8.51524ZM114.738 31.6344C114.044 34.068 113.262 37.812 113.089 39.9648C112.915 42.2112 112.481 44.2704 112.134 44.6448C111.787 45.0192 111.613 44.4576 111.7 43.428C112.047 40.4328 111.787 39.0288 110.919 39.5904C110.572 39.8712 110.572 38.5608 110.919 36.5952C111.787 32.196 113.61 17.9688 113.783 14.6928C113.87 13.3824 114.13 12.4464 114.564 12.7272C114.912 12.9144 115.259 12.1656 115.346 10.9488C115.432 9.73205 115.693 12.9144 115.78 18.0624C116.04 24.6144 115.693 28.5456 114.738 31.6344ZM112.134 21.5256C111.526 25.3632 110.572 30.792 110.138 33.6L109.356 38.748L109.183 33.132C109.096 28.2648 112.221 13.2888 113.089 14.2248C113.262 14.412 112.828 17.688 112.134 21.5256ZM46.2528 29.5752C45.9924 29.856 46.6 31.1664 47.5548 32.4768C48.5096 33.7872 48.9436 35.1912 48.5096 35.6592C47.2076 37.0632 45.0376 35.472 44.43 32.8512C44.1696 31.4472 43.7356 29.5752 43.4752 28.6392C43.0412 27.1416 43.2148 27.048 44.864 27.984C45.9056 28.5456 46.5132 29.2944 46.2528 29.5752ZM51.808 32.0088C51.808 32.4768 51.0268 32.196 50.072 31.26C49.1172 30.324 48.336 28.92 48.336 28.0776C48.4228 26.9544 48.77 27.1416 50.072 28.8264C51.0268 30.0432 51.808 31.4472 51.808 32.0088ZM66.4772 30.4176C67.7792 32.196 68.1264 33.7872 67.866 35.8464C67.5188 37.9056 67.6056 38.3736 68.2132 37.344C69.5152 35.2848 70.036 36.5016 70.7304 43.2408L71.4248 49.3248L69.4284 47.8272C67.0848 46.0488 62.3976 36.876 62.1372 33.5064C61.6164 27.4224 63.3524 26.2056 66.4772 30.4176ZM48.77 31.728C49.638 32.7576 50.1588 33.6 49.8984 33.6C49.638 33.6 48.77 32.7576 47.902 31.728C47.034 30.6984 46.5132 29.856 46.7736 29.856C47.034 29.856 47.902 30.6984 48.77 31.728ZM82.1012 33.5064C85.3128 37.9056 85.5732 42.024 82.9692 46.704C80.5388 51.1032 77.7612 54.192 76.3724 54.192C74.81 54.192 74.8968 51.7584 76.546 51.0096C77.2404 50.7288 77.5876 49.8864 77.3272 49.1376C77.0668 48.3888 77.3272 47.5464 77.9348 47.0784C78.6292 46.704 78.8028 46.7976 78.3688 47.4528C77.9348 48.2016 78.1952 48.3888 79.0632 48.0144C81.0596 47.172 80.7124 46.0488 78.282 45.3936C75.8516 44.7384 75.5044 43.2408 77.414 40.5264C78.1084 39.5904 78.6292 38.28 78.716 37.812C78.716 37.2504 77.848 38.28 76.8932 39.8712C75.8516 41.556 74.7232 42.6792 74.2892 42.3984C73.8552 42.1176 73.508 42.8664 73.508 44.0832C73.508 45.5808 73.7684 45.8616 74.2892 45.0192C74.8968 43.9896 75.0704 43.9896 75.4176 45.0192C75.9384 46.3296 73.8552 49.044 73.2476 47.8272C72.206 45.9552 71.6852 41.088 72.5532 41.088C73.074 41.088 73.508 40.4328 73.508 39.684C73.508 38.9352 72.9872 38.5608 72.2928 38.8416C71.5984 39.1224 70.904 38.4672 70.5568 37.0632C70.2964 35.7528 69.8624 34.068 69.602 33.4128C68.9944 31.6344 72.1192 30.0432 76.2856 29.9496C78.9764 29.856 79.8444 30.4176 82.1012 33.5064ZM60.488 32.5704C61.6164 34.9104 61.6164 38.1864 60.4012 41.9304C59.62 44.1768 59.186 44.6448 58.6652 43.7088C58.1444 42.8664 57.884 43.5216 57.884 45.5808C57.884 47.4528 57.5368 48.4824 57.016 48.108C56.148 47.5464 55.8876 48.576 56.0612 51.384C56.0612 52.5072 55.9744 52.5072 55.5404 51.4776C55.1932 50.5416 54.9328 50.5416 54.412 51.2904C54.0648 51.9456 53.8044 50.8224 53.7176 48.9504C53.6308 47.0784 52.7628 43.8024 51.808 41.6496C49.5512 36.408 49.638 35.0976 52.5024 32.7576C55.5404 30.324 59.2728 30.2304 60.488 32.5704ZM102.239 32.2896C103.975 33.2256 104.669 34.2552 104.409 35.2848C101.284 47.0784 100.156 56.532 101.284 61.8672C101.892 64.3008 102.846 66.7344 103.541 67.3896C104.235 67.9512 104.756 69.0744 104.756 69.8232C104.756 70.8528 104.235 70.7592 102.499 69.2616C101.197 68.1384 99.6348 67.296 99.0272 67.296C98.0724 67.296 97.8988 66.4536 98.3328 63.7392C98.5932 61.8672 98.4196 59.1528 97.8988 57.7488C97.2044 55.8768 97.2912 55.0344 98.3328 54.192C101.371 51.384 98.0724 43.896 93.7324 43.896C92.604 43.896 91.736 43.7088 91.736 43.428C91.736 42.6792 95.208 35.472 96.7704 32.8512C98.246 30.4176 98.8536 30.324 102.239 32.2896ZM128.192 37.0632C126.456 42.96 120.293 55.128 118.991 55.128C116.387 55.128 117.082 52.6944 122.029 44.364C124.98 39.5904 127.584 34.8168 127.845 33.8808C128.192 32.9448 126.109 36.0336 123.331 40.8072C116.734 51.852 115.259 53.9112 115.259 52.6944C115.085 50.5416 127.584 31.6344 128.366 32.4768C128.973 33.132 128.886 34.7232 128.192 37.0632ZM107.62 40.8072C108.054 45.5808 107.968 46.3296 105.971 48.2016C104.062 50.1672 103.888 50.2608 103.888 48.576C103.888 47.64 103.628 46.1424 103.28 45.2064C102.933 44.1768 103.02 43.8024 103.628 44.1768C104.235 44.5512 104.756 42.8664 105.19 39.684C105.884 33.2256 106.926 33.6936 107.62 40.8072ZM46.4264 37.5312C46.2528 38.1864 46.6 38.8416 47.034 38.8416C47.5548 38.9352 47.8152 38.5608 47.6416 37.9992C47.468 37.4376 47.9888 37.6248 48.77 38.28C51.5476 40.8072 53.8912 49.512 51.808 49.512C51.2004 49.512 51.2004 50.0736 51.808 51.2904C52.4156 52.5072 52.4156 53.3496 51.808 53.724C51.374 54.0048 50.94 53.724 50.94 53.0688C50.94 52.4136 50.072 53.0688 49.1172 54.66C48.0756 56.1576 47.468 56.8128 47.7284 55.8768C47.9888 55.0344 47.468 53.6304 46.5132 52.6944C45.6452 51.852 44.864 51.4776 44.864 51.852C44.864 52.32 44.43 52.2264 43.8224 51.5712C43.2148 50.916 42.1732 50.448 41.4788 50.5416C40.6976 50.5416 41.0448 51.0096 42.26 51.5712C43.4752 52.1328 44.6904 52.6008 45.0376 52.5072C45.298 52.4136 46.0792 52.9752 46.6 53.724C47.3812 54.7536 47.468 55.128 46.6868 55.128C46.0792 55.128 45.8188 55.5024 46.0792 55.8768C46.3396 56.3448 45.2112 56.7192 43.562 56.7192C41.9128 56.7192 40.7844 56.3448 41.0448 55.8768C41.3052 55.5024 40.7844 55.4088 40.0032 55.7832C38.8748 56.2512 38.7012 56.064 39.222 55.0344C39.5692 54.2856 39.656 54.0048 39.222 54.3792C38.354 55.3152 34.448 50.0736 34.448 47.9208C34.448 45.3 35.4028 44.6448 36.618 46.4232C37.3992 47.64 37.8332 47.64 38.354 46.704C38.788 45.9552 38.7012 45.6744 38.1804 46.0488C37.6596 46.4232 36.9652 46.0488 36.7048 45.2064C36.0972 43.428 38.7012 39.3096 40.524 39.216C41.2184 39.216 42.6072 38.5608 43.4752 37.812C45.5584 36.1272 46.7736 36.0336 46.4264 37.5312ZM66.0432 46.4232C66.4772 47.9208 66.13 48.7632 64.828 49.512C63.8732 50.0736 63.3524 51.0096 63.6128 51.5712C64.0468 52.32 63.6996 52.4136 62.5712 51.9456C61.356 51.4776 61.1824 51.5712 61.8768 52.32C62.3976 52.8816 63.526 53.0688 64.3072 52.6944C65.5224 52.2264 65.6092 51.852 64.6544 51.2904C63.8732 50.7288 63.8732 50.448 64.5676 50.448C66.564 50.448 66.564 52.2264 64.7412 56.532C63.092 60.1824 62.5712 60.8376 60.5748 60.5568C58.4916 60.276 58.318 59.9952 58.2312 55.128C58.1444 51.5712 58.8388 48.2952 60.3144 44.5512L62.4844 39.1224L64.0468 41.7432C64.828 43.1472 65.7828 45.3 66.0432 46.4232ZM110.832 44.5512C110.832 45.768 110.485 46.704 109.964 46.704C109.53 46.704 109.096 45.6744 109.096 44.4576C109.096 43.2408 108.836 41.3688 108.575 40.4328C108.054 38.9352 108.141 38.9352 109.356 40.62C110.138 41.6496 110.832 43.428 110.832 44.5512ZM118.904 41.7432C119.165 42.2112 118.036 44.9256 116.474 47.9208C113.87 52.9752 113.61 53.1624 113.523 50.7288C113.176 45.2064 113.262 43.8024 114.304 42.492C115.432 40.9944 118.297 40.62 118.904 41.7432ZM92.17 44.5512C95.1212 45.1128 98.68 48.2016 98.68 50.2608C98.68 52.4136 95.9892 55.128 93.906 55.128C92.8644 55.128 90.7812 55.596 89.3056 56.1576C87.9168 56.7192 85.226 57 83.3164 56.8128C80.1048 56.4384 80.018 56.4384 82.2748 55.4088C84.8788 54.192 85.3128 51.384 82.7956 51.852C81.4936 52.1328 81.32 51.9456 82.188 50.916C82.7088 50.1672 83.6636 49.7928 84.1844 50.0736C84.792 50.2608 85.66 49.3248 86.2676 48.0144C87.3092 45.6744 87.2224 45.5808 85.7468 47.0784C83.4032 49.3248 82.9692 48.8568 84.6184 45.768C85.7468 43.6152 86.528 43.0536 87.83 43.5216C88.7848 43.8024 90.7812 44.2704 92.17 44.5512ZM172.2 74.4096C171.766 77.3112 167.078 89.9472 165.516 92.568C164.822 93.6912 164.561 93.7848 163.867 92.6616C163.346 91.7256 162.999 91.7256 162.478 92.4744C162.131 93.2232 159.353 93.504 154.145 93.3168C147.028 93.1296 145.205 92.568 147.201 91.2576C148.677 90.228 155.1 76.5624 155.1 74.4096C155.1 71.6016 148.416 62.7096 145.726 61.9608C144.163 61.5864 142.861 62.2416 140.084 65.2368C138.087 67.296 135.657 69.2616 134.702 69.5424C133.66 69.8232 132.185 71.508 131.23 73.0992C129.581 76.0944 129.494 76.0944 129.234 73.9416C129.06 72.5376 129.754 70.8528 131.143 69.2616C133.4 66.7344 133.4 66.6408 131.838 65.1432C129.841 63.1776 124.199 63.084 121.248 64.956C120.033 65.7048 118.123 66.2664 116.908 66.2664C115.259 66.2664 115.866 65.7984 119.078 64.3944C125.067 61.7736 125.501 61.1184 122.81 58.3104L120.554 55.8768L123.244 50.8224L125.935 45.768L149.284 58.6848L172.634 71.508L172.2 74.4096ZM74.7232 54.5664C81.2332 61.3992 82.7956 64.488 79.7576 64.488C77.848 64.488 74.1156 60.4632 74.9836 59.34C75.4176 58.9656 74.8968 58.872 74.0288 59.2464C72.5532 59.808 72.5532 59.7144 73.5948 58.3104C74.7232 56.8128 74.6364 56.8128 72.7268 57.8424C71.0776 58.872 70.47 58.7784 69.4284 57.6552C68.2132 56.3448 66.6508 47.64 67.6056 47.64C67.866 47.64 71.0776 50.7288 74.7232 54.5664ZM76.3724 48.8568C76.6328 49.512 76.112 50.0736 75.1572 50.1672C73.8552 50.2608 73.7684 50.0736 74.6364 49.044C75.9384 47.3592 75.8516 47.3592 76.3724 48.8568ZM112.221 49.8864C113.176 54.192 111.006 56.2512 106.405 55.2216C105.103 54.9408 105.016 51.384 106.232 49.6056C107.968 46.7976 111.526 46.9848 112.221 49.8864ZM103.714 58.6848L103.888 53.3496L106.058 55.6896C108.054 57.8424 108.141 58.3104 107.273 62.2416C106.232 66.4536 104.756 68.7 104.756 65.892C104.756 65.0496 104.409 64.5816 103.975 64.8624C102.673 65.7984 102.152 62.8032 102.326 55.3152L102.499 48.108L103.02 56.064C103.454 62.9904 103.628 63.2712 103.714 58.6848ZM56.4084 55.7832C56.9292 58.5912 55.6272 61.1184 54.2384 60.1824C53.8044 59.9016 52.7628 60.1824 51.9816 60.9312C50.6796 61.9608 50.6796 61.9608 51.5476 60.6504C52.1552 59.808 52.3288 58.7784 51.9816 58.404C51.6344 57.936 52.1552 57.936 53.11 58.2168C54.6724 58.7784 54.6724 58.7784 53.3704 57.6552C52.3288 56.8128 52.1552 55.9704 52.7628 54.8472C54.0648 52.4136 55.8876 52.9752 56.4084 55.7832ZM37.486 55.6896C38.6144 56.532 41.3052 57.7488 43.3016 58.404C45.732 59.2464 46.3396 59.7144 45.0376 59.7144C43.3884 59.808 43.2148 59.9952 44.1696 61.1184C44.7772 61.7736 45.8188 62.148 46.3396 61.9608C46.9472 61.68 47.468 62.148 47.468 62.8968C47.468 64.3944 45.732 65.424 43.0412 65.424C42.0864 65.424 40.0032 66.4536 38.354 67.764C36.184 69.5424 34.882 70.0104 33.146 69.5424C27.5908 68.0448 26.7228 59.9952 31.7572 56.3448C35.2292 53.8176 34.882 53.8176 37.486 55.6896ZM112.134 59.4336C110.572 65.0496 110.572 64.956 112.134 63.552C113.957 61.8672 113.783 63.8328 111.96 65.7048C110.485 67.1088 110.398 66.9216 110.138 62.9904C109.964 60.1824 110.398 58.1232 111.44 56.6256C112.308 55.4088 113.089 54.4728 113.262 54.5664C113.349 54.7536 112.828 56.9064 112.134 59.4336ZM118.123 56.1576C118.644 56.9064 120.206 58.1232 121.508 58.872C123.765 60.0888 123.852 60.276 122.463 61.3992C118.991 64.1136 115.432 61.68 116.387 57.3744C116.734 55.8768 116.648 55.2216 116.127 55.5024C115.693 55.8768 115.085 55.6896 114.825 55.2216C113.957 53.8176 117.082 54.66 118.123 56.1576ZM68.1264 58.872C67.9528 59.34 67.3452 59.4336 66.6508 58.9656C65.8696 58.404 65.696 57.468 66.0432 56.4384C66.6508 54.7536 66.7376 54.7536 67.5188 56.3448C68.0396 57.2808 68.3 58.404 68.1264 58.872ZM90.6076 59.6208C85.5732 64.6752 83.49 65.0496 81.754 61.3992C81.0596 59.9016 80.452 58.404 80.452 58.2168C80.452 58.1232 82.2748 57.936 84.6184 57.8424C86.8752 57.8424 89.4792 57.468 90.434 57C94.0796 55.3152 94.1664 56.1576 90.6076 59.6208ZM96.944 61.212C96.944 63.6456 96.3364 66.7344 95.642 68.232C94.0796 71.508 89.4792 75.252 88.698 73.848C88.3508 73.2864 87.7432 73.1928 87.2224 73.4736C86.7016 73.848 86.7884 74.4096 87.4828 74.8776C88.4376 75.5328 88.3508 75.72 87.2224 75.72C86.4412 75.72 85.4864 75.252 85.226 74.784C84.8788 74.2224 84.2712 74.1288 83.7504 74.4096C83.1428 74.8776 83.4032 75.5328 84.358 76.3752C85.5732 77.2176 85.66 77.592 84.7052 77.592C83.8372 77.6856 83.924 78.06 85.1392 78.996C86.094 79.7448 86.4412 80.4 85.8336 80.4C85.3128 80.4 85.0524 81.0552 85.3128 81.7104C85.7468 82.9272 85.4864 82.9272 83.5768 81.9912C80.886 80.6808 80.018 78.6216 81.754 77.9664C82.4484 77.592 83.056 77.0304 83.056 76.5624C83.056 76.188 82.5352 76.0008 81.8408 76.2816C80.9728 76.656 80.6256 76.188 80.7124 74.8776C80.7992 73.5672 81.1464 73.2864 81.8408 73.9416C82.5352 74.5032 83.056 74.5032 83.4032 73.9416C83.6636 73.4736 83.5768 72.912 83.056 72.7248C82.5352 72.5376 82.5352 71.976 83.056 71.04C83.7504 69.8232 83.924 69.8232 83.924 71.2272C83.924 73.1928 85.3128 74.2224 86.1808 72.8184C86.6148 72.0696 86.4412 71.976 85.66 72.444C84.792 73.0056 84.6184 72.8184 85.0524 71.6952C85.3128 70.8528 85.1392 70.104 84.7052 69.9168C83.5768 69.5424 85.226 64.488 86.4412 64.488C86.8752 64.488 89.132 62.8032 91.302 60.744C93.472 58.6848 95.642 57 96.1628 57C96.5968 57 96.944 58.872 96.944 61.212ZM114.825 59.4336C114.478 60.276 114.044 60.8376 113.87 60.5568C113.61 60.276 113.61 59.34 113.957 58.4976C114.304 57.6552 114.738 57.0936 114.912 57.3744C115.172 57.6552 115.172 58.5912 114.825 59.4336ZM66.4772 62.4288C66.0432 63.9264 63.6996 67.296 61.4428 70.0104C57.6236 74.5032 56.9292 74.8776 53.978 74.5968C50.3324 74.316 49.0304 72.444 51.7212 71.508C53.6308 70.8528 54.9328 67.8576 54.4988 65.0496C54.3252 63.7392 54.6724 63.3648 55.9744 63.7392C57.3632 64.2072 57.7104 63.8328 57.45 62.5224C57.1028 60.4632 57.3632 60.3696 59.5332 61.68C60.6616 62.2416 61.6164 62.148 62.7448 61.212C63.6996 60.4632 65.0884 59.808 65.8696 59.808C67.0848 59.808 67.1716 60.1824 66.4772 62.4288ZM74.81 62.8968C77.6744 65.9856 80.018 72.5376 79.3236 75.5328C79.0632 76.7496 78.716 76.3752 77.9348 74.4096C76.8932 71.6016 72.64 65.7048 72.0324 66.1728C71.8588 66.36 70.5568 66.2664 69.168 65.892C67.2584 65.424 66.8244 64.8624 67.1716 63.7392C68.734 58.9656 70.904 58.6848 74.81 62.8968ZM108.922 72.1632L108.662 76.188L107.1 73.0992C105.624 70.1976 105.624 69.9168 107.1 65.3304L108.662 60.5568L108.922 64.3944C109.096 66.5472 109.096 70.0104 108.922 72.1632ZM117.342 62.616C117.602 63.1776 117.255 63.8328 116.474 64.1136C114.825 64.8624 113.87 64.1136 114.738 62.7096C115.432 61.3992 116.648 61.3992 117.342 62.616ZM147.288 64.3008C149.024 65.7984 149.111 66.36 148.243 68.3256C147.375 70.1976 147.375 70.3848 148.33 68.9808C149.458 67.5768 149.718 67.764 151.888 70.1976C153.19 71.6952 154.232 73.5672 154.232 74.2224C154.232 74.9712 152.409 79.1832 150.239 83.5824C146.073 92.1 143.99 94.44 132.792 102.77C127.15 107.076 126.109 107.263 127.324 103.8C127.411 103.519 127.498 103.051 127.411 102.677C127.411 102.302 127.845 102.209 128.452 102.49C129.147 102.77 132.445 99.6816 136.264 95.4696C142.427 88.5432 144.337 85.08 142.08 85.08C141.646 85.08 141.212 85.548 141.212 86.1096C141.212 86.5776 139.216 89.3856 136.785 92.1936C133.574 95.7504 132.011 96.9672 131.23 96.312C130.188 95.376 129.06 95.9376 129.06 97.4352C129.06 97.9032 129.494 97.9968 130.102 97.6224C130.709 97.1544 130.796 97.3416 130.362 98.0904C129.32 100.056 127.845 97.8096 128.886 95.7504C129.668 93.972 128.973 84.3312 127.758 81.1488C127.064 79.3704 133.834 70.104 135.83 70.104C136.438 70.104 138.434 68.4192 140.344 66.36C144.25 62.0544 144.597 61.9608 147.288 64.3008ZM53.3704 66.5472C53.544 68.4192 53.0232 69.4488 51.2004 70.6656C49.8984 71.6016 47.468 73.5672 45.9056 74.9712C43.4752 77.2176 42.5204 77.592 39.8296 77.0304C36.7048 76.4688 34.448 74.5032 34.448 72.5376C34.5348 70.7592 41.9128 66.36 44.0828 66.7344C45.2112 66.9216 46.6868 66.6408 47.2944 66.1728C48.8568 64.7688 48.5964 66.36 46.8604 68.6064C45.298 70.572 45.298 70.572 47.2944 68.7936C48.336 67.764 49.204 66.1728 49.204 65.2368C49.204 62.2416 53.0232 63.4584 53.3704 66.5472ZM83.924 66.7344C83.924 67.3896 83.3164 68.7 82.622 69.7296C81.4068 71.4144 81.4068 71.4144 81.2332 69.168L81.1464 66.828L80.452 69.168C80.018 70.572 79.7576 70.8528 79.6708 69.9168C79.584 69.0744 79.3236 67.764 79.0632 67.0152C78.8028 66.0792 79.15 65.424 80.1916 65.2368C82.2748 64.6752 83.924 65.3304 83.924 66.7344ZM130.275 65.892C131.838 67.2024 131.924 67.3896 130.536 68.4192C129.754 69.0744 128.539 71.508 127.932 73.848L126.803 78.06L125.241 75.5328C124.026 73.5672 123.939 72.6312 124.72 71.04C125.241 70.0104 126.022 69.3552 126.456 69.636C126.977 70.0104 127.064 69.5424 126.716 68.6064C126.369 67.4832 126.456 67.2024 127.15 67.6704C128.452 68.5128 130.102 67.4832 129.494 66.2664C128.713 64.956 125.762 67.0152 124.46 69.8232L123.244 72.2568L121.942 69.3552C120.64 66.7344 120.727 66.4536 122.463 65.6112C125.067 64.2072 128.366 64.3008 130.275 65.892ZM115.519 72.7248C115.866 73.0992 116.04 72.0696 115.866 70.572C115.693 68.3256 115.953 67.6704 117.429 67.4832C118.904 67.296 120.033 68.5128 122.81 73.5672C128.539 84.0504 129.147 89.9472 125.848 102.864L124.546 108.012L123.505 105.204C122.897 103.613 122.116 100.337 121.856 97.9032C121.508 95.376 120.814 92.6616 120.38 91.8192C119.512 90.4152 119.512 90.5088 119.859 92.1C120.901 96.312 122.897 109.884 122.55 110.258C122.29 110.446 122.116 109.884 122.029 108.854C122.029 107.17 121.942 107.17 121.248 108.948C120.727 110.258 120.467 108.948 120.293 104.268C120.12 98.652 120.033 98.3712 119.772 102.302L119.425 106.889L116.821 104.174C115.432 102.77 114.304 100.898 114.304 100.056C114.304 99.2136 113.523 96.8736 112.568 94.908C111.266 92.2872 110.919 90.1344 111.266 87.888C111.526 86.1096 111.787 82.4592 111.787 79.932C111.874 77.124 112.394 74.5968 113.262 73.5672C114.738 71.7888 114.304 70.7592 112.394 71.508C111.44 71.976 111.006 73.7544 110.919 78.8088C110.832 82.5528 110.572 86.952 110.311 88.5432C109.704 92.1936 110.572 96.5928 111.7 95.844C112.221 95.5632 112.568 95.844 112.568 96.4992C112.568 97.1544 112.828 98.652 113.089 99.7752C113.523 101.554 113.262 101.928 111.7 101.928C110.138 101.928 109.877 101.554 110.311 99.6816C110.919 96.8736 108.141 89.3856 105.884 88.0752C104.409 87.1392 104.409 86.952 106.318 84.8928C107.36 83.5824 108.228 81.6168 108.228 80.3064C108.228 79.0896 108.836 77.3112 109.443 76.3752C110.051 75.5328 110.398 73.7544 110.138 72.3504C109.877 70.7592 110.398 69.2616 111.787 67.6704L113.87 65.2368L114.391 68.6064C114.651 70.4784 115.172 72.3504 115.519 72.7248ZM70.2964 67.6704C73.7684 69.2616 76.112 71.976 75.7648 74.2224C75.678 75.1584 76.7196 77.124 78.0216 78.6216C81.4936 82.272 81.0596 85.4544 77.2404 85.8288C75.0704 86.1096 73.942 85.548 72.206 83.4888C70.9908 82.0848 69.0812 79.8384 67.9528 78.528C63.8732 73.848 62.7448 71.1336 63.7864 68.7C64.9148 66.0792 66.3036 65.7984 70.2964 67.6704ZM102.326 70.104C103.541 71.04 104.756 71.6016 105.103 71.2272C105.45 70.9464 105.45 71.3208 105.103 72.2568C104.843 73.0992 105.016 73.848 105.45 73.848C106.926 73.848 107.707 80.2128 106.666 82.74C105.19 86.2032 100.416 88.356 95.0344 87.9816C94.2532 87.888 92.4304 86.7648 91.1284 85.2672L88.7848 82.74L93.906 82.1784C99.0272 81.6168 99.0272 81.6168 95.208 81.336C92.9512 81.2424 92.17 80.868 93.2984 80.6808C95.0344 80.3064 95.5552 79.5576 95.0344 77.7792C94.8608 77.4048 94.5136 77.2176 94.1664 77.3112C93.7324 77.4984 93.472 77.0304 93.472 76.3752C93.472 75.6264 93.2116 75.72 92.604 76.656C92.0832 77.4984 92.17 78.2472 92.8644 78.8088C93.5588 79.3704 93.2116 79.464 91.9096 79.1832C90.868 78.9024 90.1736 79.0896 90.5208 79.5576C91.2152 80.868 89.6528 80.5872 87.7432 79.0896C86.1808 77.7792 86.1808 77.6856 88.4376 76.7496C89.7396 76.188 92.2568 74.1288 93.9928 71.976C97.5516 67.764 99.2008 67.3896 102.326 70.104ZM60.488 79.5576C60.488 79.932 61.356 80.7744 62.4844 81.336C64.3072 82.3656 64.3072 82.272 62.7448 80.9616C61.79 80.1192 61.356 79.464 61.8768 79.464C63.1788 79.5576 65.3488 81.7104 65.1752 82.9272C65.0884 83.5824 65.0016 84.5184 64.9148 85.08C64.9148 85.548 64.4808 86.016 64.0468 86.016C62.9184 86.016 57.9708 81.4296 57.016 79.464C56.3216 78.1536 56.582 77.9664 58.318 78.3408C59.5332 78.528 60.488 79.0896 60.488 79.5576ZM70.036 82.8336C71.0776 84.612 71.8588 86.2032 71.6852 86.3904C70.2964 87.6072 67.2584 88.824 66.564 88.356C65.5224 87.6072 65.4356 85.08 66.4772 85.08C66.9112 85.08 67.432 84.2376 67.6924 83.1144C68.1264 81.5232 67.9528 81.4296 66.8244 82.4592C65.5224 83.5824 65.5224 83.4888 66.4772 81.5232C66.998 80.4 67.6056 79.464 67.866 79.464C68.0396 79.464 68.9944 80.9616 70.036 82.8336ZM86.1808 83.676C86.6148 82.4592 86.962 82.3656 87.4828 83.3952C88.0036 84.2376 86.962 84.9864 83.6636 86.2032C78.9764 87.888 75.0704 88.4496 78.5424 86.8584C79.6708 86.3904 80.7992 85.1736 81.0596 84.144C81.4936 82.4592 81.6672 82.4592 83.5768 83.8632C85.4864 85.1736 85.66 85.1736 86.1808 83.676ZM59.4464 84.0504C60.3144 84.612 59.4464 85.1736 56.8424 85.8288C50.5928 87.6072 50.3324 88.356 55.3668 90.696C59.9672 92.7552 61.5296 93.3168 63.96 93.4104C64.9148 93.504 64.9148 93.7848 64.1336 94.6272C63.526 95.2824 63.092 97.3416 63.092 99.2136C63.092 102.115 62.7448 102.77 61.1824 103.051C59.9672 103.238 58.0576 102.396 56.3216 100.805C52.7628 97.5288 46.6868 97.1544 44.0828 99.9624C43.128 100.992 42.1732 101.554 41.9996 101.179C41.826 100.805 41.826 100.992 41.9128 101.647C42.0864 102.209 41.392 103.8 40.4372 105.11C38.1804 108.106 37.6596 118.682 39.3956 123.362L40.6976 126.638L37.2256 123.456C35.2292 121.584 33.6668 119.338 33.6668 118.121C33.58 116.998 33.2328 115.032 32.712 113.628C31.5836 110.539 24.6396 102.864 22.9036 102.864C22.1224 102.864 21.1676 101.46 20.56 99.588C19.5184 96.2184 20.0392 94.0656 21.6884 94.7208C22.296 94.908 23.3376 94.6272 24.032 93.972C25.9416 92.2872 39.1352 87.0456 46.6 85.08C53.8044 83.1144 57.7104 82.8336 59.4464 84.0504ZM63.96 87.888C64.9148 88.9176 65.4356 90.3216 65.1752 91.164C64.828 91.9128 64.5676 92.568 64.4808 92.568C63.3524 92.568 54.6724 89.3856 54.0648 88.824C53.6308 88.356 54.5856 87.6072 56.2348 87.1392C60.7484 85.7352 62.0504 85.8288 63.96 87.888ZM76.112 88.0752C78.1084 89.6664 78.9764 89.8536 79.7576 89.0112C81.0596 87.6072 87.9168 87.5136 88.698 88.9176C89.0452 89.4792 88.6112 90.5088 87.7432 91.2576C86.7884 92.1 86.528 92.4744 87.1356 92.1936C87.6564 91.8192 89.132 92.0064 90.3472 92.568C91.9964 93.2232 92.604 94.1592 92.604 95.844C92.604 100.243 91.1284 101.928 87.3092 101.928C84.8788 101.928 84.0108 101.554 84.4448 100.805C84.792 100.15 84.7052 100.056 84.0108 100.43C83.49 100.805 83.3164 101.554 83.5768 102.115C83.924 102.677 83.6636 102.864 82.9692 102.677C82.2748 102.396 81.8408 101.647 82.0144 101.086C82.1012 100.43 81.8408 100.15 81.4068 100.43C80.9728 100.711 80.1916 100.337 79.584 99.588C78.8028 98.5584 78.8028 97.8096 79.8444 96.312C80.7992 94.8144 81.2332 94.6272 81.5804 95.5632C81.9276 96.4056 82.1012 96.2184 82.1012 95.0952C82.188 92.568 80.7992 93.2232 78.716 96.4992L76.8932 99.588L77.1536 94.7208C77.3272 92.1 77.2404 90.0408 76.98 90.1344C76.7196 90.228 75.5912 89.3856 74.4628 88.1688C71.772 85.4544 72.8136 85.3608 76.112 88.0752ZM96.8572 90.228C98.0724 90.6024 98.68 90.5088 98.3328 89.9472C97.4648 88.356 103.107 87.7944 105.277 89.292C107.794 90.9768 108.836 94.3464 107.273 95.4696C104.148 97.6224 97.5516 95.376 91.8228 90.228C88.264 86.952 88.3508 85.6416 91.9964 87.7944C93.472 88.824 95.7288 89.8536 96.8572 90.228ZM74.7232 89.9472C76.1988 92.1936 76.4592 98.3712 75.244 101.46L74.4628 103.332L74.376 101.46C74.2892 100.15 73.942 100.618 73.1608 102.864C72.206 105.672 71.5984 106.14 68.9076 106.421C66.4772 106.608 65.6092 106.327 64.828 104.736C63.7864 102.583 64.394 95.9376 65.5224 96.6864C65.8696 96.9672 66.0432 95.6568 65.8696 93.8784C65.5224 90.9768 65.7828 90.6024 68.3868 89.292C72.3796 87.5136 73.1608 87.5136 74.7232 89.9472ZM140.344 90.0408C140.344 90.228 139.476 91.164 138.434 92.1936L136.438 93.972L138.087 91.8192C139.65 89.8536 140.344 89.292 140.344 90.0408ZM159.527 94.44C167.599 94.44 170.03 95.5632 171.158 99.7752C171.592 101.366 171.245 101.834 169.682 102.209C167.86 102.583 167.946 102.583 170.03 102.77C172.286 102.864 174.456 104.736 172.373 104.736C171.766 104.736 172.634 105.672 174.283 106.889C177.581 109.322 178.536 111.943 176.366 112.879C175.498 113.16 172.026 112.786 168.641 111.85C160.568 109.884 159.44 109.884 154.492 112.786C150.586 115.032 149.805 115.126 142.514 114.564C134.876 113.909 129.234 112.318 134.528 112.224C138 112.224 144.684 110.258 144.684 109.322C144.684 108.854 145.205 108.761 145.899 109.042C146.594 109.322 147.896 108.761 148.85 107.731C149.805 106.702 150.847 106.046 151.107 106.327C151.368 106.702 151.628 106.421 151.628 105.859C151.628 104.362 151.281 104.455 147.462 106.514C143.729 108.48 138.261 110.071 140.344 108.48C142.08 107.263 140.691 107.263 138.434 108.574C137.306 109.229 136.351 109.229 135.83 108.667C135.31 108.106 136.872 106.421 140.257 103.987C143.122 101.928 145.986 100.056 146.594 99.7752C147.201 99.588 147.375 99.0264 147.028 98.5584C146.073 97.4352 138.868 101.741 136.698 104.642C135.744 105.953 134.702 107.076 134.442 107.076C134.094 107.076 133.921 107.357 134.008 107.731C134.094 108.012 133.66 108.574 132.879 108.854C132.185 109.135 131.838 108.948 132.098 108.48C132.358 107.918 132.011 107.825 131.317 108.106C130.536 108.386 130.188 109.135 130.449 109.603C130.796 110.165 130.275 110.258 129.06 109.884C127.758 109.416 127.324 109.51 127.671 110.258C128.105 110.914 127.758 111.007 126.803 110.633C125.848 110.258 125.501 110.352 125.935 111.101C126.196 111.662 126.196 112.318 125.762 112.598C125.328 112.879 124.98 112.411 124.98 111.662C124.98 110.071 143.035 95.4696 146.333 94.3464C147.548 93.972 149.371 93.7848 150.326 93.972C151.281 94.2528 155.447 94.44 159.527 94.44ZM96.076 97.248C95.3816 97.716 94.4268 98.184 93.906 98.184C93.472 98.184 93.6456 97.716 94.34 97.248C95.0344 96.78 96.076 96.312 96.51 96.312C97.0308 96.312 96.7704 96.78 96.076 97.248ZM108.141 101.46C107.968 104.268 107.968 104.268 107.36 100.992C106.752 97.716 106.752 97.716 106.579 100.524L106.492 103.332L104.93 100.524C103.28 97.716 103.28 97.716 105.103 97.1544C107.36 96.4992 108.228 97.8096 108.141 101.46ZM109.79 98.652C109.53 98.9328 109.009 98.4648 108.749 97.5288C108.228 96.2184 108.315 96.1248 109.183 96.9672C109.79 97.6224 110.051 98.3712 109.79 98.652ZM102.76 99.3072C104.843 101.741 106.492 107.544 106.405 111.756C106.405 114.096 106.145 113.815 104.756 109.603C103.888 106.795 102.76 104.081 102.239 103.519C101.458 102.677 101.371 102.864 101.805 104.268C102.412 105.859 102.326 105.953 101.11 104.923C99.982 103.894 99.982 104.362 101.371 107.263C103.454 111.662 103.454 113.066 101.371 112.879C100.416 112.879 99.8952 112.411 100.069 112.037C100.763 110.82 97.8988 105.766 95.208 103.613C91.9096 100.992 91.9096 100.243 95.4684 98.652C99.3744 96.78 100.676 96.9672 102.76 99.3072ZM56.2348 101.834C58.4916 104.268 58.6652 104.83 57.7104 106.982C56.582 109.79 55.6272 109.978 53.4572 107.918C52.0684 106.514 51.808 106.608 50.5928 109.135C49.8984 110.539 49.2908 111.475 49.204 111.007C49.204 109.978 45.732 113.909 45.732 115.032C45.732 115.5 44.6036 115.968 43.2148 115.968C41.392 115.968 40.6108 115.406 40.1768 113.815C39.1352 109.603 39.7428 107.263 42.7808 103.238C45.6452 99.4944 46.2528 99.12 49.8116 99.12C52.9364 99.12 54.1516 99.6816 56.2348 101.834ZM81.1464 102.302C80.9728 102.396 80.1048 103.051 79.2368 103.8C77.6744 105.11 77.5876 105.11 78.5424 103.238C79.0632 102.115 79.2368 100.898 78.8896 100.43C78.5424 99.9624 78.9764 100.243 79.8444 100.898C80.6256 101.647 81.2332 102.209 81.1464 102.302ZM93.038 104.174C96.2496 105.672 97.6384 107.918 98.1592 112.224C98.3328 113.722 98.3328 115.032 98.246 115.032C98.1592 115.032 97.378 114.096 96.4232 112.973C94.774 111.007 94.774 111.007 96.51 111.569C98.246 112.224 98.246 112.224 96.5968 110.82C95.642 110.071 94.4268 109.416 93.9928 109.416C93.472 109.416 93.6456 109.884 94.34 110.352C95.0344 110.82 95.2948 111.288 94.9476 111.288C94.5136 111.288 95.0344 112.411 95.9892 113.722C98.4196 117.091 98.246 118.308 95.2948 120.554C91.1284 123.83 88.0904 123.175 83.1428 117.934C79.15 113.722 77.0668 110.539 79.8444 112.879C81.1464 114.002 84.0108 114.096 83.4032 112.973C83.1428 112.505 82.7088 112.318 82.3616 112.598C82.0144 112.786 80.886 111.943 79.7576 110.726C78.1952 108.948 78.0216 108.386 78.9764 107.918C79.6708 107.638 80.5388 107.544 80.9728 107.731C81.4068 107.918 81.8408 107.544 81.9276 107.076C82.0144 106.514 81.2332 106.327 80.1916 106.421C77.1536 106.982 79.7576 104.642 83.2296 103.8C87.6564 102.677 89.8264 102.77 93.038 104.174ZM115.866 104.362C118.731 106.514 119.859 109.229 118.557 110.914C117.689 112.037 117.776 112.13 119.165 111.662C120.033 111.288 120.554 111.288 120.206 111.756C119.859 112.13 120.033 113.16 120.64 113.909C121.508 115.126 121.422 115.219 120.38 114.564C119.512 114.002 119.512 114.377 120.64 115.687C122.637 118.214 121.422 121.865 117.863 123.924C115.346 125.234 115.172 125.234 114.13 123.456C113.436 122.239 112.047 121.584 110.398 121.584C107.1 121.584 104.496 119.712 105.19 117.746C105.45 116.998 106.752 115.594 108.054 114.658C109.356 113.722 109.704 113.254 108.749 113.534C107.534 114.002 107.273 113.815 107.794 112.505C108.054 111.569 108.575 109.51 108.836 108.012C109.79 102.77 112.134 101.554 115.866 104.362ZM139.476 103.238C139.476 103.426 138.782 104.174 138 104.83C136.612 106.046 136.525 105.953 137.653 104.455C138.782 102.958 139.476 102.49 139.476 103.238ZM25.1604 105.11C26.7228 106.421 27.2436 108.106 25.768 107.076C24.3792 106.14 24.8132 107.17 26.3756 108.574C27.6776 109.697 27.7644 109.697 27.07 108.48C26.3756 107.263 26.4624 107.263 27.7644 108.386C29.674 110.071 29.674 111.382 27.7644 110.726C26.5492 110.258 26.4624 110.352 27.4172 111.101C29.3268 112.598 27.8512 117.84 25.5076 117.84C21.862 117.84 15.352 111.382 15.352 107.825C15.352 104.362 21.9488 102.49 25.1604 105.11ZM60.7484 105.391C60.2276 106.889 60.3144 106.889 61.6164 105.766C62.9184 104.642 63.3524 104.736 64.6544 106.046C65.5224 106.889 66.998 107.544 67.9528 107.544C68.8208 107.544 70.1228 107.918 70.8172 108.386C72.206 109.322 71.5116 112.224 69.8624 112.224C69.0812 112.224 69.168 111.943 70.036 111.288C70.8172 110.726 70.904 110.352 70.2964 110.352C69.168 110.352 68.0396 111.943 67.7792 113.815C67.6056 114.658 68.0396 114.751 69.2548 114.096C71.1644 112.973 71.4248 113.722 69.8624 115.968C69.2548 116.81 69.8624 116.155 71.1644 114.658L73.5948 111.756L72.9872 114.564C72.1192 118.682 70.2964 122.239 68.734 122.894C63.7864 124.954 59.4464 121.303 59.2728 114.845C59.2728 112.598 59.5332 109.79 59.9672 108.574C60.488 106.982 60.4012 106.514 59.62 107.076C58.8388 107.638 58.8388 107.357 59.5332 105.766C60.7484 103.426 61.5296 103.145 60.7484 105.391ZM75.5912 106.795C75.3308 107.263 74.7232 107.357 74.2892 107.076C73.8552 106.702 73.508 107.263 73.508 108.106C73.508 109.416 73.2476 109.51 72.4664 108.667C71.5984 107.731 71.5984 107.357 72.4664 106.702C73.942 105.766 76.112 105.766 75.5912 106.795ZM103.801 109.416C103.801 110.352 103.541 110.165 103.02 108.948C101.978 106.421 101.978 104.923 103.02 106.608C103.454 107.357 103.801 108.667 103.801 109.416ZM57.9708 111.382C57.5368 112.598 57.1028 113.16 57.1028 112.505C57.016 111.101 57.9708 108.293 58.4048 108.761C58.6652 108.948 58.4048 110.165 57.9708 111.382ZM56.148 112.692C56.148 114.564 53.3704 115.219 51.8948 113.628C50.6796 112.411 50.7664 112.13 52.242 110.914C54.0648 109.51 56.148 110.446 56.148 112.692ZM75.244 111.288C75.244 111.756 74.6364 111.943 73.942 111.662C73.2476 111.288 72.64 110.914 72.64 110.726C72.64 110.539 73.2476 110.352 73.942 110.352C74.6364 110.352 75.244 110.726 75.244 111.288ZM104.496 114.283C104.235 114.938 104.062 114.47 104.062 113.16C104.062 111.85 104.235 111.382 104.496 111.943C104.669 112.598 104.669 113.722 104.496 114.283ZM22.2092 117.84C24.032 118.87 24.1188 119.15 22.9036 119.899C20.994 121.022 15.352 116.342 15.352 113.722C15.352 112.037 15.5256 112.13 17.7824 114.283C19.0844 115.594 21.0808 117.185 22.2092 117.84ZM32.712 117.559C32.712 119.806 31.41 120.274 29.3268 118.87C28.2852 118.121 28.2852 117.559 29.24 115.032C30.3684 112.224 30.4552 112.13 31.5836 113.722C32.1912 114.658 32.712 116.342 32.712 117.559ZM51.9816 117.091C51.1136 118.027 46.6 116.155 46.6 114.845C46.6 114.377 47.034 114.283 47.468 114.564C47.9888 114.845 48.336 114.377 48.336 113.534C48.336 112.13 48.6832 112.224 50.506 114.096C51.7212 115.313 52.3288 116.717 51.9816 117.091ZM103.888 117.466C103.888 119.244 102.499 119.15 101.805 117.278C100.85 114.751 101.197 113.815 102.586 115.032C103.28 115.687 103.888 116.81 103.888 117.466ZM142.514 115.5C146.333 115.874 149.545 116.249 149.805 116.436C149.979 116.623 149.198 118.308 148.156 120.18L146.246 123.55L142.427 119.712C137.219 114.47 136.525 115.032 141.472 120.461C144.597 123.924 145.552 125.609 145.552 127.949C145.552 130.289 146.073 131.225 148.156 132.348C151.194 134.033 151.281 134.688 149.284 138.713L147.896 141.708L146.68 138.619C145.552 135.718 144.25 134.22 145.205 137.028C145.812 138.619 143.99 144.048 142.861 144.048C142.514 144.048 140.952 142.176 139.476 139.836C137.393 136.654 135.483 134.969 131.404 132.91C128.366 131.506 125.328 129.259 124.633 128.042C122.81 125.047 121.942 120.929 122.55 118.682C123.244 116.436 124.894 117.278 129.841 122.707C132.011 125.047 133.14 125.89 132.619 124.673C132.098 123.55 130.275 121.397 128.626 119.993C125.501 117.278 125.414 116.062 128.452 115.874C130.275 115.781 130.188 115.687 128.192 114.938C125.935 114.19 126.456 114.19 142.514 115.5ZM14.3972 116.623C16.5672 118.682 16.0464 122.52 13.5292 122.52C12.6612 122.52 11.7064 122.988 11.3592 123.643C10.9252 124.392 11.1856 124.486 12.1404 124.111C13.0084 123.83 13.616 123.924 13.616 124.392C13.616 125.422 11.7932 125.609 9.7968 124.766C9.1024 124.486 7.45321 122.801 6.23801 121.022C4.32841 118.402 4.15481 117.466 4.93601 116.436C6.41161 114.47 12.1404 114.658 14.3972 116.623ZM59.2728 119.244C60.3144 121.584 60.7484 123.737 60.3144 124.018C59.9672 124.298 59.62 125.047 59.7068 125.609C59.7068 126.358 59.9672 126.264 60.2276 125.422C60.6616 124.392 60.8352 124.392 61.5296 125.422C62.1372 126.451 62.224 126.264 61.8768 124.954C61.4428 123.643 61.7032 123.362 62.7448 123.83C63.4392 124.111 64.4808 124.392 64.9148 124.392C65.6092 124.392 65.262 129.353 64.3072 133.003C63.6128 135.437 58.318 134.688 56.148 131.974C55.8876 131.693 54.5856 130.757 53.11 130.008C51.0268 128.885 50.4192 127.855 50.2456 125.141C50.072 122.426 50.3324 121.49 51.7212 120.648C52.7628 120.086 53.544 119.15 53.544 118.495C53.544 116.998 55.28 115.032 56.582 115.032C57.016 115.032 58.2312 116.904 59.2728 119.244ZM101.718 120.461C100.937 121.303 99.548 118.682 99.6348 116.436C99.6348 114.938 99.8084 115.032 100.937 117.185C101.718 118.682 102.065 120.18 101.718 120.461ZM75.3308 118.214C75.7648 117.934 75.9384 117.278 75.678 116.81C75.3308 116.342 75.5912 115.968 76.112 115.968C76.7196 115.968 76.8932 116.717 76.546 117.84C76.2856 118.87 76.4592 120.461 76.98 121.303C77.848 122.801 77.848 122.707 77.414 120.835C76.8064 118.682 78.1952 117.934 79.0632 119.899C79.4104 120.554 79.4104 120.18 79.2368 119.057C78.3688 113.909 83.4032 116.998 84.792 122.426C86.4412 129.072 83.056 133.752 76.546 133.752C72.3796 133.752 69.6888 131.974 67.7792 127.855C66.564 125.422 66.564 124.86 67.5188 124.486C69.5152 123.83 73.508 119.057 73.5948 117.185C73.6816 115.594 73.7684 115.594 74.1156 117.185C74.2892 118.027 74.8968 118.589 75.3308 118.214ZM49.638 118.121C50.6796 119.057 50.8532 119.618 50.2456 120.086C49.638 120.461 49.204 121.865 49.204 123.175C49.204 125.141 48.8568 125.422 47.2944 125.047C45.3848 124.486 45.3848 124.486 47.468 126.358L49.638 128.136L47.034 127.106C45.6452 126.545 43.7356 125.422 42.7808 124.579C40.7844 122.52 38.7012 118.214 39.3956 117.466C40.4372 116.436 47.9888 116.904 49.638 118.121ZM5.45681 121.584C7.80041 125.422 12.2272 127.762 14.1368 126.17C14.6576 125.702 15.5256 123.55 16.1332 121.397L17.2616 117.372L19.3448 120.18C21.862 123.55 21.9488 124.579 19.7788 126.638C17.6956 128.698 11.2724 129.914 12.314 128.136C12.8348 127.2 12.6612 127.013 11.5328 127.481C7.97401 128.978 0.509206 122.707 1.81121 119.244C2.50561 117.185 2.93961 117.466 5.45681 121.584ZM29.1532 119.993C30.4552 121.771 29.5004 122.52 26.202 122.52C22.73 122.52 21.862 121.678 23.8584 120.086C25.768 118.495 27.938 118.495 29.1532 119.993ZM106.492 122.894C106.492 123.269 105.884 123.175 105.19 122.52C104.496 121.865 103.888 121.771 103.888 122.333C103.888 122.801 104.496 123.737 105.19 124.392C105.884 125.047 106.492 126.264 106.492 127.106C106.492 128.136 105.711 127.762 103.714 125.609C101.458 123.082 101.197 122.426 102.065 121.21C102.933 120.086 103.454 119.993 104.843 120.929C105.711 121.49 106.492 122.426 106.492 122.894ZM36.8784 124.86C38.0068 125.89 39.3088 127.481 39.8296 128.417C40.524 129.914 40.4372 130.008 38.8748 129.072C37.8332 128.51 37.052 128.23 37.052 128.417C37.052 128.978 23.0772 124.579 22.4696 123.924C22.2092 123.643 23.598 123.456 25.5944 123.456C27.504 123.456 29.4136 122.988 29.7608 122.426C30.108 121.771 31.6704 122.801 33.9272 125.047C37.3992 128.51 37.3992 128.51 34.6216 125.328C29.9344 119.712 31.2364 119.431 36.8784 124.86ZM99.548 121.584C99.548 122.052 98.5064 122.52 97.2912 122.52C96.076 122.52 95.2948 122.146 95.642 121.584C95.9024 121.022 96.944 120.648 97.8988 120.648C98.7668 120.648 99.548 121.022 99.548 121.584ZM112.828 124.298C113.002 125.234 113.002 129.072 112.742 132.91L112.308 139.649L109.877 134.594C108.488 131.786 107.447 127.949 107.36 125.983C107.36 122.801 107.534 122.52 109.877 122.52C111.613 122.52 112.481 123.082 112.828 124.298ZM89.132 124.298C89.132 124.766 88.8716 125.328 88.5244 125.609C88.0904 125.796 88.264 125.796 88.8716 125.702C92.2568 124.766 93.906 132.442 90.868 134.501C89.2188 135.53 88.9584 135.437 88.0904 132.722C87.396 130.57 86.962 130.195 86.4412 131.131C85.5732 132.535 85.3996 131.786 86.1808 129.634C86.4412 128.791 87.1356 128.417 87.5696 128.698C88.0904 129.072 88.0036 128.51 87.4828 127.387C86.1808 124.766 86.2676 123.456 87.83 123.456C88.5244 123.456 89.132 123.83 89.132 124.298ZM98.246 124.298C99.114 125.89 95.4684 126.264 92.5172 124.954L89.566 123.55L93.6456 123.456C95.9024 123.456 97.8988 123.83 98.246 124.298ZM122.81 126.451C123.331 128.042 123.765 129.446 123.592 129.54C123.505 129.634 122.376 130.382 121.074 131.225L118.644 132.816L119.512 130.382C120.033 129.072 120.38 127.013 120.38 125.702C120.38 122.52 121.508 122.894 122.81 126.451ZM118.297 131.225C117.516 134.033 116.3 136.841 115.606 137.496C114.912 138.151 114.304 139.087 114.304 139.555C114.304 140.117 115.693 139.181 117.342 137.59C119.078 135.998 121.074 134.688 121.942 134.594C123.158 134.594 123.158 134.407 121.682 133.846C120.12 133.19 120.12 133.003 122.29 131.506C124.46 130.008 124.633 130.008 127.758 132.348C129.581 133.658 131.577 134.688 132.272 134.688C132.966 134.688 133.226 135.062 132.966 135.624C132.185 137.028 129.407 136.747 128.192 135.156C127.584 134.407 126.456 133.752 125.675 133.846C124.633 133.846 124.546 134.033 125.501 134.407C126.369 134.782 125.935 135.343 124.199 136.092L121.682 137.309L124.98 136.841C127.758 136.373 128.192 136.56 128.192 138.151C128.192 140.772 125.675 142.925 118.904 145.92C113.002 148.541 111.7 148.634 111.7 146.575C111.7 145.92 112.047 146.014 112.568 146.856C113.176 147.792 113.436 147.886 113.436 147.043C113.436 146.388 115.172 143.954 117.342 141.614C119.512 139.274 120.554 137.87 119.599 138.338C118.644 138.9 116.648 140.959 115.172 142.831C113.61 144.797 112.655 145.546 113.002 144.516C113.436 143.486 113.696 141.614 113.61 140.304C113.523 138.994 113.696 135.343 113.957 132.161C114.391 126.919 114.651 126.264 116.734 125.515C119.772 124.392 119.946 125.141 118.297 131.225ZM107.36 134.407C107.36 136.654 107.186 138.432 106.926 138.432C106.318 138.432 101.284 127.481 101.284 126.264C101.284 125.702 102.673 126.451 104.322 127.855C106.926 130.102 107.36 131.038 107.36 134.407ZM44.9508 127.762C59.4464 135.062 62.9184 137.215 64.7412 140.21C65.8696 141.895 66.3904 143.206 65.9564 143.018C61.2692 140.866 45.8188 132.254 44.6036 131.038C43.0412 129.634 40.958 126.264 41.6524 126.264C41.826 126.264 43.3016 126.919 44.9508 127.762ZM94.4268 129.727C93.3852 131.599 93.2116 131.038 93.9928 128.604C94.34 127.762 94.774 127.294 94.9476 127.574C95.208 127.762 94.9476 128.791 94.4268 129.727ZM102.499 131.88L104.582 136.56L102.152 134.688C100.763 133.565 98.7668 131.506 97.812 130.008L95.9892 127.2H98.1592C99.982 127.2 100.763 128.042 102.499 131.88ZM69.9492 133.471C73.2476 138.713 73.3344 139.742 70.47 138.994C67.866 138.245 67.7792 138.9 70.036 142.925C73.6816 149.383 70.6436 147.137 66.6508 140.491C64.3072 136.373 64.1336 135.811 65.0884 132.535C65.696 130.663 66.3904 129.072 66.7376 129.072C66.998 129.072 68.4736 131.038 69.9492 133.471ZM96.944 131.506C96.944 132.254 96.5968 132.629 96.076 132.348C95.642 132.067 95.208 131.412 95.208 130.85C95.208 130.382 95.642 130.008 96.076 130.008C96.5968 130.008 96.944 130.663 96.944 131.506ZM85.1392 140.491C85.3996 144.048 87.6564 148.728 89.132 148.728C89.6528 148.728 90 150.132 90 151.91C90 154.344 89.566 155.186 88.0904 155.561C87.0488 155.935 85.9204 155.842 85.66 155.467C85.3996 154.999 83.056 153.595 80.2784 152.191C75.5044 149.664 70.2964 143.954 71.338 142.176C71.8588 141.24 76.8064 141.614 77.7612 142.738C78.0216 143.112 77.5008 143.112 76.546 142.831C74.8968 142.176 74.8968 142.176 76.4592 143.58C77.6744 144.61 78.5424 144.703 79.8444 143.954C80.7124 143.393 81.32 143.299 81.0596 143.767C80.7992 144.142 81.5804 145.826 82.7956 147.324L84.8788 150.132L82.9692 146.107C81.9276 143.861 81.0596 140.866 80.9728 139.368C80.886 137.964 80.5388 136.934 80.1048 137.215C79.6708 137.496 79.4972 137.215 79.6708 136.654C79.9312 135.998 80.3652 135.624 80.7124 135.811C81.1464 135.998 81.8408 135.25 82.3616 134.314C83.3164 132.535 83.4032 132.535 84.0976 134.782C84.5316 135.998 85.0524 138.619 85.1392 140.491ZM87.2224 135.062C87.4828 136.186 87.1356 136.654 86.3544 136.373C85.7468 136.092 85.0524 135.156 84.9656 134.314C84.7052 133.19 85.0524 132.722 85.8336 133.003C86.4412 133.284 87.1356 134.22 87.2224 135.062ZM103.714 137.309C106.492 139.742 107.36 141.146 107.36 143.206C107.36 144.703 107.013 145.92 106.579 145.92C106.232 145.92 104.409 143.58 102.673 140.772C100.937 137.964 99.2008 135.718 98.7668 135.905C97.9856 136.092 97.812 135.624 97.812 133.658C97.812 132.442 98.9404 133.19 103.714 137.309ZM18.3032 135.25C22.5564 136.841 24.032 138.994 24.032 143.58C24.032 145.171 23.2508 146.107 20.56 147.23C14.3104 149.945 12.5744 149.102 11.5328 142.831C11.012 139.93 11.2724 138.994 13.0952 137.122C14.8312 135.156 15.0048 134.688 13.7896 134.407C12.9216 134.126 12.748 133.939 13.2688 133.846C13.7896 133.846 16.0464 134.407 18.3032 135.25ZM24.466 134.688C26.0284 135.437 25.9416 135.53 23.8584 135.53C22.4696 135.624 21.428 135.156 21.428 134.688C21.428 133.565 22.1224 133.565 24.466 134.688ZM94.9476 135.343C95.1212 135.905 94.34 136.092 92.9512 135.811C91.302 135.53 91.0416 135.156 91.9096 134.594C93.2116 133.658 94.5136 133.939 94.9476 135.343ZM79.0632 136.747C79.7576 139.836 79.6708 142.176 78.8028 142.176C77.6744 142.176 72.64 136.934 72.64 135.718C72.64 135.156 73.942 134.688 75.5912 134.688C77.848 134.688 78.6292 135.156 79.0632 136.747ZM109.964 140.304C111.179 138.245 112.047 141.521 111.353 145.546C110.311 151.349 108.662 148.728 108.575 141.146C108.488 137.309 108.662 135.905 108.836 137.87C109.096 140.491 109.443 141.24 109.964 140.304ZM27.5908 137.496C28.7192 137.496 28.4588 140.491 27.1568 142.457C26.0284 143.954 25.8548 143.861 24.9868 141.146C23.6848 137.122 23.7716 136.279 25.4208 136.934C26.202 137.215 27.1568 137.496 27.5908 137.496ZM60.5748 141.989C66.0432 144.89 72.206 148.634 74.376 150.132L78.282 152.94L75.4176 153.221C73.3344 153.408 71.338 152.659 68.2132 150.6C63.526 147.324 54.846 144.048 50.8532 144.048C49.0304 144.048 48.336 143.58 48.336 142.363C48.336 139.93 49.2908 136.56 50.072 136.56C50.4192 136.56 55.1064 138.994 60.5748 141.989ZM94.0796 138.058C94.2532 138.619 93.3852 140.491 92.17 142.082C90.868 143.674 90.2604 144.984 90.7812 144.984C91.302 144.984 92.6908 143.299 93.9928 141.334C95.9892 137.964 96.4232 137.683 98.5932 138.526C101.284 139.555 104.843 144.984 102.76 144.984C102.065 144.984 100.329 145.265 98.9404 145.546C96.51 146.014 96.4232 146.014 96.5968 142.457C96.6836 139.93 96.5968 139.649 96.3364 141.708C95.8156 145.733 94.9476 146.201 90.434 145.546C86.7016 144.89 86.4412 144.703 86.7016 142.363C86.8752 140.959 87.3092 139.555 87.83 139.181C88.3508 138.713 88.1772 138.432 87.396 138.432C86.2676 138.432 86.2676 138.338 87.396 137.496C89.0452 136.279 93.6456 136.747 94.0796 138.058ZM136.872 138.432C138.955 139.836 137.566 140.023 134.268 138.806C131.664 137.777 131.49 137.59 133.4 137.59C134.615 137.496 136.178 137.87 136.872 138.432ZM136.438 140.866C138.695 141.989 138.782 142.176 136.872 141.708C135.657 141.521 133.4 141.24 131.924 141.24C130.362 141.24 129.06 140.772 129.06 140.304C129.06 138.9 133.4 139.274 136.438 140.866ZM145.639 142.831C144.597 144.703 144.424 144.142 145.205 141.708C145.552 140.866 145.986 140.398 146.16 140.678C146.42 140.866 146.16 141.895 145.639 142.831ZM137.48 143.206C140.084 144.235 145.118 149.102 146.594 151.817C147.982 154.718 144.076 152.846 139.042 148.26C136.698 146.107 133.921 143.861 132.966 143.299C131.23 142.27 131.23 142.27 133.14 142.176C134.181 142.176 136.091 142.644 137.48 143.206ZM132.011 144.329C133.487 145.546 133.487 145.639 131.49 147.043C129.754 148.354 128.8 148.354 125.328 147.418L121.161 146.294L124.026 144.797C127.584 142.831 130.015 142.738 132.011 144.329ZM55.9744 147.792C57.9708 149.383 59.62 150.787 59.62 150.974C59.62 151.162 58.8388 151.536 57.9708 151.817C56.9292 152.098 54.6724 151.068 52.1552 149.102C46.7736 144.984 46.7736 144.984 49.8116 144.984C51.2872 144.984 53.8912 146.107 55.9744 147.792ZM50.4192 148.915C54.412 151.723 54.6724 152.004 52.676 152.285C50.072 152.566 40.6108 147.324 42.3468 146.575C44.6904 145.546 46.0792 146.014 50.4192 148.915ZM59.8804 147.137C61.4428 147.886 63.1788 149.102 63.7864 149.945C64.4808 150.787 65.4356 151.255 66.13 150.974C66.7376 150.694 67.5188 150.881 67.7792 151.349C68.0396 151.817 66.998 152.191 65.4356 152.285C63.4392 152.285 61.7032 151.442 59.2728 149.102C55.5404 145.639 55.6272 145.265 59.8804 147.137ZM106.579 147.137C107.273 147.792 108.575 149.383 109.443 150.787C110.919 153.221 110.919 153.221 108.922 152.846C107.794 152.659 107.534 152.753 108.228 153.034C109.964 153.876 113.436 157.339 113.436 158.275C113.436 159.398 108.054 159.211 103.714 157.714C101.544 157.058 97.8988 155.093 95.5552 153.408C93.2116 151.723 91.8228 150.881 92.4304 151.63C93.8192 153.314 93.7324 154.344 92.0832 154.344C91.2152 154.344 90.868 153.689 91.0416 152.191C91.2152 150.506 91.8228 150.132 93.906 150.319L96.51 150.506L94.1664 149.57C89.3056 147.605 91.4756 146.669 102.586 146.107C104.062 146.014 105.798 146.482 106.579 147.137ZM44.7772 150.319L48.77 152.846L45.9924 153.595C43.996 154.157 42.26 153.876 39.0484 152.378L34.882 150.413L37.052 149.196C40.0032 147.418 40.2636 147.418 44.7772 150.319ZM135.917 153.502C150.152 161.645 156.228 166.512 152.322 166.512C150.326 166.512 141.906 161.832 136.525 157.807C129.928 152.846 129.06 152.285 129.06 152.846C129.06 153.97 145.118 164.734 149.024 166.231C151.454 167.167 153.364 168.197 153.364 168.571C153.364 169.694 148.243 170.443 145.378 169.788C140.604 168.665 137.74 166.606 129.841 158.556C125.675 154.25 121.335 150.506 120.206 150.038C118.297 149.383 118.297 149.383 119.946 148.634C122.984 147.324 127.498 148.728 135.917 153.502ZM120.814 153.314C121.595 154.999 121.682 156.31 121.161 157.246C120.554 158.275 120.38 158.088 120.38 156.59C120.38 155.467 119.599 153.595 118.557 152.378L116.734 150.132L118.123 152.472C118.904 153.689 119.512 155.467 119.512 156.403C119.512 159.211 117.776 158.275 116.387 154.718C115.346 152.004 115.259 151.068 116.127 150.506C117.689 149.477 119.425 150.506 120.814 153.314ZM114.825 152.94C115.172 154.25 115.172 155.654 114.825 155.935C113.87 156.965 111.44 153.595 111.96 152.098C112.742 149.851 114.217 150.319 114.825 152.94ZM57.1896 157.339C55.28 160.054 53.2836 163.236 52.7628 164.359C51.8948 166.231 47.034 168.197 45.9924 167.074C45.3848 166.418 52.242 156.684 55.1064 154.25C56.3216 153.314 57.9708 152.472 58.9256 152.472C60.3144 152.472 60.054 153.221 57.1896 157.339ZM125.501 157.058C124.894 157.246 123.939 156.684 123.244 155.654C121.335 152.846 121.942 152.004 124.373 154.438C125.762 155.842 126.196 156.778 125.501 157.058ZM52.9364 154.531C50.072 158.369 45.6452 164.921 45.0376 166.231C44.2564 167.729 40.524 167.167 40.524 165.576C40.524 163.798 50.3324 153.408 51.9816 153.408C53.2836 153.408 53.544 153.689 52.9364 154.531ZM64.6544 154.063C63.0052 158.182 59.186 165.295 58.4048 165.763C57.884 166.138 56.3216 166.512 55.0196 166.512H52.5892L55.3668 162.019C59.3596 155.654 61.4428 153.408 63.3524 153.408C64.2204 153.408 64.828 153.689 64.6544 154.063ZM68.9944 154.157C70.2964 155.093 67.866 158.837 63.96 161.832C60.6616 164.359 60.6616 163.33 63.96 157.807C66.6508 153.221 67.0848 152.94 68.9944 154.157ZM43.996 159.492C41.392 162.3 38.6144 164.64 37.8332 164.64C36.0104 164.64 30.976 161.926 30.976 160.896C30.976 159.773 34.5348 157.526 37.486 156.778L40.09 156.122L37.1388 159.398C35.4896 161.27 34.5348 162.768 34.9688 162.768C35.4896 162.768 36.9652 161.458 38.4408 159.866C40.958 156.965 45.0376 154.438 47.468 154.344C48.1624 154.344 46.6 156.684 43.996 159.492ZM82.1012 156.029C83.2296 156.497 83.056 156.778 81.32 157.246C78.0216 158.275 71.0776 158.182 70.47 157.246C69.0812 154.718 76.98 153.876 82.1012 156.029ZM104.93 159.492C109.877 161.364 111.353 161.27 113.436 159.024C115.432 156.871 116.387 156.684 117.689 158.369C118.384 159.398 117.863 160.054 115.346 161.551C110.745 164.359 103.367 165.763 93.6456 165.67C89.0452 165.67 83.8372 165.67 82.188 165.763C80.5388 165.857 77.6744 165.576 75.7648 165.202C72.5532 164.546 72.4664 164.453 74.2892 163.142C75.9384 161.832 77.0668 161.926 84.7052 163.236C91.9096 164.546 94.4268 164.64 99.2876 163.704C102.586 163.142 105.798 162.206 106.492 161.738C107.447 160.99 107.1 160.99 105.19 161.458C103.801 161.926 100.416 162.206 97.812 162.3C95.208 162.3 92.8644 162.581 92.604 162.955C92.3436 163.236 88.698 162.955 84.4448 162.113C78.4556 160.99 76.2856 160.99 74.5496 161.832C72.64 162.768 72.0324 162.581 70.3832 160.709L68.3868 158.556L75.9384 158.369C80.452 158.275 85.7468 157.433 89.132 156.403C94.6004 154.625 94.8608 154.625 97.9856 156.31C99.7216 157.246 102.846 158.65 104.93 159.492ZM32.278 156.216C32.6252 156.778 31.3232 157.152 29.0664 157.152C26.3756 157.152 25.6812 156.871 26.636 156.216C28.372 154.999 31.5836 154.999 32.278 156.216ZM31.41 159.024C30.7156 160.241 28.372 160.241 26.636 159.024C25.6812 158.369 26.202 158.088 28.6324 158.088C30.6288 158.088 31.7572 158.462 31.41 159.024ZM71.4248 163.423C70.904 163.985 67.432 161.551 67.432 160.615C67.432 160.241 68.3868 160.615 69.602 161.458C70.8172 162.3 71.6852 163.236 71.4248 163.423ZM87.6564 167.074C87.396 167.916 87.6564 168.946 88.264 169.32C89.0452 169.882 88.6112 170.537 86.6148 171.566C84.0108 173.064 83.924 173.064 83.924 171.192C83.924 170.162 84.7052 168.478 85.66 167.448C87.7432 165.202 88.3508 165.108 87.6564 167.074ZM131.664 171.286L133.834 172.596L131.23 172.877C128.366 173.251 119.859 171.473 117.776 170.069C115.606 168.665 129.234 169.788 131.664 171.286ZM94.9476 172.69C90.6076 176.527 82.4484 182.705 79.2368 184.67C76.8932 186.168 74.81 188.134 74.6364 189.07C74.0288 191.316 72.64 191.41 72.64 189.163C72.64 188.227 72.206 187.01 71.5984 186.355C70.8172 185.513 71.1644 184.577 73.1608 182.33C76.546 178.493 85.3996 172.783 86.6148 173.626C87.2224 174 87.396 173.906 87.1356 173.345C86.2676 171.754 89.2188 171.005 90.6944 172.315C91.8228 173.345 91.9964 173.251 91.5624 172.034C91.1284 170.724 91.302 170.63 93.038 171.566C94.1664 172.128 95.0344 172.596 94.9476 172.69ZM121.856 172.596C124.546 173.345 128.105 174 129.668 174C132.792 174 133.053 174.562 131.49 178.212C130.362 181.02 127.671 181.301 122.029 179.148C119.946 178.306 117.776 177.931 117.082 178.212C116.474 178.399 116.127 178.306 116.387 177.931C116.648 177.463 115.432 176.34 113.61 175.498C110.572 173.906 110.485 173.719 112.134 172.502C114.217 170.818 115.606 170.818 121.856 172.596ZM97.2912 175.404C97.0308 176.714 96.51 179.99 96.1628 182.705L95.5552 187.572L94.5136 183.828C93.038 178.493 93.2116 175.217 95.0344 174.094C97.378 172.596 97.8988 172.877 97.2912 175.404ZM100.416 190.286C100.416 202.548 99.982 208.913 98.7668 215.839C97.812 220.894 96.8572 227.446 96.51 230.347C96.1628 233.342 95.4684 235.776 95.0344 235.776C94.5136 235.776 94.34 235.121 94.6872 234.372C94.9476 233.623 94.774 232.968 94.34 232.968C93.2116 232.968 93.2116 218.366 94.34 210.972C94.774 207.883 95.7288 198.617 96.51 190.474C97.2912 182.33 98.0724 175.217 98.3328 174.842C99.8952 172.034 100.416 175.591 100.416 190.286ZM105.884 174.655C105.277 174.842 104.756 175.778 104.756 176.527C104.756 177.744 105.016 177.744 106.058 176.808C107.1 175.872 107.36 175.872 107.36 176.902C107.36 177.931 107.62 177.931 108.315 176.808C109.009 175.685 109.096 175.778 108.749 177.276C108.488 178.306 108.054 180.365 107.794 181.956C107.447 184.109 107.534 184.296 108.141 182.892C109.617 179.242 110.398 189.912 110.398 214.248C110.398 236.15 109.443 256.649 108.488 253.747C108.228 253.186 107.707 252.624 107.186 252.624C106.666 252.624 106.492 253.279 106.752 253.934C107.1 254.87 106.839 255.151 105.971 254.777C105.277 254.496 104.148 254.777 103.454 255.432C101.892 256.836 101.892 256.462 103.107 247.476C103.541 243.826 103.975 226.135 104.062 208.164C104.062 190.099 104.322 175.123 104.496 174.655C104.669 174.281 105.364 174 105.884 174.094C106.666 174.094 106.666 174.281 105.884 174.655ZM102.76 215.184C102.499 235.682 101.978 249.722 101.284 253.654L100.156 259.925L96.5968 260.393C90.7812 261.235 85.66 260.112 84.792 257.866C84.0108 255.994 84.0108 255.994 83.8372 257.772C83.6636 258.802 83.3164 254.777 83.056 248.88L82.5352 238.116L82.3616 248.225C82.188 255.9 81.9276 258.334 81.1464 257.959C80.5388 257.772 80.018 256.836 80.018 255.806C80.018 254.87 80.3652 239.239 80.7124 221.268L81.4936 188.508L83.7504 184.858L86.094 181.207L86.3544 188.414C86.528 192.626 86.962 195.341 87.396 195.06C87.9168 194.686 88.264 197.026 88.3508 200.863C88.3508 204.326 88.7848 209.287 89.132 211.908C89.9132 216.588 89.6528 205.169 88.698 186.168C88.4376 181.207 88.5244 178.867 89.0452 180.084C89.7396 181.862 89.8264 181.769 90.0868 179.616C90.6944 175.498 91.9964 177.463 93.6456 184.951C95.2948 192.158 95.2948 192.533 93.5588 209.194C92.17 222.11 91.9096 227.352 92.604 231.002C93.8192 238.022 96.1628 242.234 99.982 244.387C101.718 245.417 101.718 245.417 99.982 243.358C97.2912 240.082 97.2044 229.973 99.6348 216.962C101.11 209.006 101.718 202.642 101.805 192.252C101.892 184.483 102.065 177.37 102.239 176.34C102.933 171.192 103.107 186.168 102.76 215.184ZM116.561 181.301C121.422 189.257 135.396 210.598 143.035 221.83C149.545 231.283 152.496 236.899 152.496 239.894C152.496 241.018 152.149 241.018 149.805 239.801C146.42 238.022 141.559 238.678 135.396 241.954C130.275 244.574 125.848 249.442 122.029 256.836C120.554 259.644 119.078 261.984 118.818 261.984C118.47 261.984 116.734 256.368 114.912 249.535L111.613 237.18V214.716C111.7 198.43 111.353 190.474 110.398 185.7C109.704 182.143 109.096 178.961 109.096 178.68C109.096 178.399 110.224 180.365 111.613 182.892C114.044 187.478 131.056 209.1 135.223 212.844C137.393 214.81 134.094 210.598 124.546 199.085C118.904 192.346 117.429 189.912 119.772 191.41C120.293 191.784 120.12 191.222 119.165 190.099C118.297 188.976 117.168 188.227 116.734 188.321C116.214 188.414 115.606 187.946 115.346 187.198C115.085 186.355 115.346 186.168 116.127 186.636C116.821 187.104 117.082 187.01 116.648 186.542C116.214 186.074 115.432 185.7 114.998 185.7C114.478 185.7 113.87 185.138 113.61 184.39C113.349 183.547 113.61 183.36 114.304 183.828C115.085 184.296 115.259 184.202 114.825 183.454C114.478 182.892 113.87 182.611 113.436 182.892C112.394 183.641 110.572 179.803 111.179 178.118C111.44 177.276 111.266 176.995 110.832 177.276C109.877 177.931 109.617 176.527 110.485 175.591C111.526 174.468 113.349 176.153 116.561 181.301ZM80.2784 187.666C76.98 190.848 75.244 191.69 75.244 189.912C75.244 188.695 82.2748 183.173 82.9692 183.922C83.2296 184.202 82.0144 185.887 80.2784 187.666ZM68.9944 218.834C60.6616 240.737 58.1444 246.634 57.5368 245.23C57.016 243.919 59.2728 236.993 66.564 217.805C75.244 195.247 78.1084 188.976 79.3236 190.286C79.584 190.474 74.8968 203.297 68.9944 218.834ZM79.8444 218.086L79.3236 242.983L72.9004 243.638C69.4284 243.919 65.1752 244.855 63.3524 245.604C61.6164 246.353 60.054 246.914 59.8804 246.727C59.7936 246.54 64.2204 234.372 69.7756 219.583C75.4176 204.888 80.018 192.907 80.1916 193.001C80.2784 193.188 80.1048 204.42 79.8444 218.086ZM113.002 246.353C114.044 250.284 114.044 250.752 112.481 252.25C111.613 253.092 110.658 253.654 110.398 253.373C110.138 253.186 110.224 250.284 110.485 247.102C110.832 243.919 111.266 241.486 111.44 241.766C111.613 241.954 112.308 244.013 113.002 246.353ZM104.669 257.866C101.544 259.738 100.503 259.363 103.02 257.398C104.148 256.368 105.537 255.806 105.971 256.087C106.405 256.368 105.798 257.21 104.669 257.866Z" fill="black"/>
</svg>
