<svg width="87" height="89" viewBox="0 0 87 89" fill="none" xmlns="http://www.w3.org/2000/svg">
<path d="M40.2465 0.104294C39.9239 0.139061 38.922 0.260742 38.0389 0.365036C33.2501 0.921288 27.3914 2.79863 23.0951 5.14531C21.2101 6.18828 17.7798 8.53496 15.9628 10.0299C14.1287 11.5422 11.2758 14.4625 9.79841 16.3398C4.60202 22.9453 1.47739 30.3678 0.322637 38.9375C0.0339486 41.0756 0.0169669 47.907 0.305655 49.9756C1.73212 60.2662 5.87564 68.8881 12.7532 75.9455C19.6478 83.0029 28.0537 87.2096 38.1238 88.6871C40.1447 88.9826 46.8185 88.9652 48.9072 88.6697C58.7566 87.2791 67.3663 82.9334 74.2099 75.9281C82.0894 67.8451 86.4876 57.4502 86.8952 45.9775C87.116 39.1809 85.8254 32.4016 83.1083 26.2133C82.1913 24.11 80.7478 21.4852 80.2893 21.0506C79.4912 20.2857 78.1157 20.5813 77.6911 21.6068C77.3855 22.3543 77.5043 22.8236 78.3704 24.3186C80.595 28.1775 82.429 33.7053 83.1592 38.6768C83.5668 41.5623 83.5668 47.6289 83.1423 50.3754C82.7517 52.9133 82.0384 55.9379 81.2573 58.2324C79.9667 62.0393 77.1987 67.1324 74.7193 70.2266C73.7004 71.5129 70.2871 75.0937 70.1003 75.0937C70.0154 75.0937 69.9645 74.9721 69.9645 74.833C69.9645 74.6766 69.6928 73.6857 69.3531 72.608C66.2794 62.8041 58.4849 55.7119 48.5336 53.6781C45.7826 53.1219 41.1636 53.1219 38.4125 53.6781C28.1386 55.7814 20.0893 63.3603 17.3213 73.5293C17.1005 74.3463 16.8967 75.0416 16.8628 75.0764C16.7439 75.2328 13.5683 71.8779 12.3287 70.3135C6.1983 62.5955 3.05669 52.8785 3.46425 42.9355C3.71897 36.3475 5.33223 30.4025 8.37195 24.7705C14.4344 13.5238 25.1668 5.89277 37.6993 3.89375C40.4164 3.45918 46.5128 3.45918 49.2129 3.89375C55.8867 4.9541 61.6095 7.33554 66.8738 11.2119C68.0455 12.0811 68.6229 12.3766 69.0475 12.3939C70.2362 12.4287 71.0853 11.1945 70.6437 10.082C70.5249 9.78652 69.9645 9.1955 69.3022 8.70879C63.3586 4.22402 56.6339 1.44277 49.077 0.347656C47.7524 0.156441 41.2824 -0.0173874 40.2465 0.104294ZM46.3599 56.8592C54.2394 57.85 61.168 62.8215 64.6832 70.018C65.5492 71.791 66.4493 74.5201 66.7889 76.3801L67.0436 77.7359L65.2266 78.9527C60.5906 82.0469 55.0885 84.1676 49.2129 85.1062C46.292 85.593 40.2296 85.5408 37.2747 85.0367C31.45 84.0111 26.1687 81.9426 21.7195 78.9353L19.9025 77.7186L20.1572 76.3627C21.8044 67.2541 28.5801 59.8838 37.4616 57.485C40.3484 56.7027 43.4561 56.4768 46.3599 56.8592Z" fill="black"/>
<path d="M73.8873 14.4973C72.4099 15.3316 73.0382 17.7305 74.7194 17.7305C75.5855 17.7305 76.4176 16.8787 76.4176 16.0096C76.4176 14.7059 75.0081 13.8541 73.8873 14.4973Z" fill="black"/>
<path d="M40.4164 18.7561C34.6596 20.0424 30.2104 24.3707 28.6821 30.1592C28.3764 31.2891 28.3085 32.0191 28.3085 34.0703C28.3085 36.1215 28.3764 36.8516 28.6821 37.9814C30.1765 43.6135 34.4558 47.8897 40.0258 49.315C41.7749 49.767 45.5109 49.7148 47.294 49.2107C52.6772 47.7332 56.8037 43.4918 58.2641 37.9814C58.5698 36.8516 58.6377 36.1215 58.6377 34.0703C58.6377 32.0191 58.5698 31.2891 58.2641 30.1592C56.8037 24.6488 52.6092 20.3553 47.294 18.9299C45.3241 18.4084 42.3014 18.3215 40.4164 18.7561ZM45.7317 22.1457C49.3318 22.8584 52.4394 25.3094 54.0697 28.7164C55.7848 32.3146 55.7848 35.826 54.0527 39.459C53.4074 40.8322 53.0338 41.3537 51.8111 42.6053C50.5884 43.8568 50.079 44.2393 48.7374 44.8998C45.1882 46.6729 41.758 46.6729 38.2088 44.8998C36.8672 44.2393 36.3578 43.8568 35.1351 42.6053C33.9294 41.3711 33.5388 40.8322 32.8765 39.459C31.1614 35.8781 31.1614 32.2625 32.8765 28.6816C33.5388 27.3084 33.9294 26.7695 35.1351 25.5354C36.3408 24.3012 36.8672 23.9014 38.2088 23.2234C40.6881 21.9719 43.0825 21.6416 45.7317 22.1457Z" fill="black"/>
</svg>
